<svg xmlns="http://www.w3.org/2000/svg" xml:space="preserve" width="960" height="960" style="shape-rendering:geometricPrecision;text-rendering:geometricPrecision;image-rendering:optimizeQuality;fill-rule:evenodd;clip-rule:evenodd" viewBox="0 0 25400 25400">
  <g id="Layer_x0020_1">
    <g id="_2709649366688">
      <g>
        <g>
          <polygon points="3006.28 17730.73 5198.3 22989.31 4971.07 23084.03 2779.05 17825.45" style="fill:#ebf2ff"/>
          <path d="M2779.23 17835.02c-238.92,-118.2 -728.28,-456.25 -1092.59,-865.8 -364.31,-409.55 -603.54,-890.59 -594.32,-1228.39 9.22,-337.78 266.91,-532.3 523.62,-508.64 256.68,23.67 512.38,265.56 727.88,596.77 215.51,331.22 390.83,751.8 492.65,1086.84 101.84,335.05 130.19,584.59 150.16,760.17 19.95,175.6 31.49,277.24 -207.4,159.05z" style="fill:#ebf2ff"/>
          <path d="M3520.62 19381.44c-116.55,-239.73 -296.52,-806.62 -333.85,-1353.48 -37.32,-546.87 68.02,-1073.68 282.13,-1335.13 214.07,-261.43 536.91,-257.48 725.41,-81.61 188.46,175.87 242.55,523.67 210.18,917.49 -32.38,393.83 -151.25,833.71 -275.85,1160.96 -124.6,327.26 -254.95,541.93 -346.66,692.98 -91.74,151.06 -144.83,238.5 -261.36,-1.21z" style="fill:#ebf2ff"/>
          <path d="M3759.73 19988.72c-156.72,-215.6 -572.35,-641.06 -1037.4,-931.22 -465.05,-290.14 -979.49,-444.95 -1310.92,-378.99 -331.4,65.96 -479.76,352.73 -413.21,601.8 66.56,249.03 348.05,460.33 710.82,616.99 362.77,156.67 806.87,258.67 1154.27,302.62 347.41,43.96 598.17,29.91 774.59,20.01 176.47,-9.9 278.59,-15.63 121.85,-231.21z" style="fill:#ebf2ff"/>
          <path d="M4088.97 20640.1c-2.94,-266.53 76.55,-855.98 276.46,-1366.36 199.91,-510.38 520.24,-941.67 825.53,-1086.57 305.25,-144.9 595.45,-3.39 690.73,236.15 95.27,239.53 -4.45,577.1 -201.99,919.33 -197.54,342.24 -492.95,689.16 -745.43,931.8 -252.48,242.64 -462.06,381.04 -609.52,478.42 -147.48,97.38 -232.84,153.75 -235.78,-112.77z" style="fill:#ebf2ff"/>
          <path d="M4278.23 21428.77c-211.08,-162.77 -729.67,-454.02 -1257.59,-601.52 -527.91,-147.52 -1065.12,-151.25 -1364.58,5.35 -299.44,156.58 -361.07,473.52 -227.11,693.77 133.97,220.23 463.56,343.76 855.77,391.96 392.19,48.2 847.05,21.06 1192.78,-34.54 345.73,-55.62 582.39,-139.7 748.9,-198.85 166.53,-59.19 262.92,-93.43 51.83,-256.17z" style="fill:#ebf2ff"/>
        </g>
        <g>
          <polygon points="22393.72 17730.73 20201.7 22989.31 20428.93 23084.03 22620.95 17825.45" style="fill:#ebf2ff"/>
          <path d="M22620.77 17835.02c238.92,-118.2 728.28,-456.25 1092.59,-865.8 364.32,-409.55 603.54,-890.59 594.32,-1228.39 -9.22,-337.78 -266.91,-532.3 -523.62,-508.64 -256.68,23.67 -512.38,265.56 -727.88,596.77 -215.5,331.22 -390.83,751.8 -492.65,1086.84 -101.83,335.05 -130.19,584.59 -150.16,760.17 -19.95,175.6 -31.49,277.24 207.4,159.05z" style="fill:#ebf2ff"/>
          <path d="M21879.38 19381.44c116.55,-239.73 296.52,-806.62 333.85,-1353.48 37.32,-546.87 -68.02,-1073.68 -282.13,-1335.13 -214.06,-261.43 -536.91,-257.48 -725.41,-81.61 -188.46,175.87 -242.55,523.67 -210.18,917.49 32.38,393.83 151.25,833.71 275.85,1160.96 124.6,327.26 254.95,541.93 346.66,692.98 91.74,151.06 144.83,238.5 261.36,-1.21z" style="fill:#ebf2ff"/>
          <path d="M21640.27 19988.72c156.73,-215.6 572.35,-641.06 1037.4,-931.22 465.05,-290.14 979.49,-444.95 1310.92,-378.99 331.4,65.96 479.76,352.73 413.21,601.8 -66.56,249.03 -348.05,460.33 -710.82,616.99 -362.77,156.67 -806.87,258.67 -1154.27,302.62 -347.4,43.96 -598.17,29.91 -774.59,20.01 -176.46,-9.9 -278.59,-15.63 -121.85,-231.21z" style="fill:#ebf2ff"/>
          <path d="M21311.03 20640.1c2.94,-266.53 -76.54,-855.98 -276.46,-1366.36 -199.91,-510.38 -520.24,-941.67 -825.53,-1086.57 -305.25,-144.9 -595.45,-3.39 -690.73,236.15 -95.26,239.53 4.45,577.1 201.99,919.33 197.54,342.24 492.95,689.16 745.43,931.8 252.49,242.64 462.06,381.04 609.52,478.42 147.48,97.38 232.84,153.75 235.78,-112.77z" style="fill:#ebf2ff"/>
          <path d="M21121.77 21428.77c211.08,-162.77 729.67,-454.02 1257.59,-601.52 527.91,-147.52 1065.13,-151.25 1364.58,5.35 299.44,156.58 361.07,473.52 227.11,693.77 -133.97,220.23 -463.56,343.76 -855.77,391.96 -392.19,48.2 -847.04,21.06 -1192.78,-34.54 -345.73,-55.62 -582.39,-139.7 -748.89,-198.85 -166.54,-59.19 -262.93,-93.43 -51.84,-256.17z" style="fill:#ebf2ff"/>
        </g>
      </g>
      <path d="M2926.72 6599.99l11235.17 0c382.22,0 694.96,312.74 694.96,694.96l0 405.4c0,382.22 -312.74,694.96 -694.96,694.96l-11235.17 0c-382.22,0 -694.96,-312.74 -694.96,-694.96l0 -405.4c0,-382.22 312.74,-694.96 694.96,-694.96z" style="fill:#4553e7"/>
      <path d="M6597.18 13317.91l3894.24 0c1955.04,0 3554.63,-1599.54 3554.63,-3554.68l0 -1367.92 -11003.5 0 0 1367.92c0,1955.14 1599.59,3554.68 3554.63,3554.68z" style="fill:#d9e8ff"/>
      <path d="M2926.72 22873.6l11235.17 0c382.22,0 694.96,-312.74 694.96,-694.96l0 -405.39c0,-382.23 -312.74,-694.96 -694.96,-694.96l-11235.17 0c-382.22,0 -694.96,312.73 -694.96,694.96l0 405.39c0,382.22 312.74,694.96 694.96,694.96z" style="fill:#4553e7"/>
      <path d="M6597.18 16155.68l3894.24 0c1955.04,0 3554.63,1599.54 3554.63,3554.68l0 1367.93 -11003.5 0 0 -1367.93c0,-1955.14 1599.59,-3554.68 3554.63,-3554.68z" style="fill:#d9e8ff"/>
      <path d="M9934.2 13308.72c1837.93,-131.12 3301.06,-1675.58 3301.06,-3545.37l0 -1368.04 -9381.91 0 0 1368.04c0,1869.79 1463.17,3414.21 3301.02,3545.37l0 2847.97c-1918.58,42.87 -3474.75,1625.24 -3474.75,3553.55l0 1368.05 9729.37 0 0 -1368.05c0,-1928.36 -1556.17,-3510.73 -3474.79,-3553.55l0 -2847.97z" style="fill:#ebf2ff"/>
      <path d="M5169.08 10896.45c389.52,762.64 1158.04,1308.18 2059.47,1372.5l968.23 69.1 0 4838.01 -1019.11 22.79c-1356.84,30.32 -2455.64,1153.97 -2455.64,2511.39l0 325.63 7644.54 0 0 -325.63c0,-1357.46 -1098.8,-2481.11 -2455.63,-2511.39l-1019.16 -22.75 0 -4838.09 968.23 -69.06c901.48,-64.32 1669.99,-609.86 2059.52,-1372.5l-6750.45 0z" style="fill:#fe5a58"/>
      <path d="M19291.25 10162.3c-19.27,-202.23 -38.52,-404.47 -40.93,-510.4 -2.41,-105.92 12.03,-115.56 -50.56,-185.37 -62.6,-69.82 -202.24,-199.82 -257.6,-452.61 -55.38,-252.79 -26.49,-628.37 0,-837.82 26.48,-209.46 50.54,-252.79 231.12,-264.83 180.56,-12.05 517.61,7.21 712.63,16.85 195,9.63 247.96,9.63 320.19,91.49 72.23,81.84 163.72,245.56 214.28,334.65 50.54,89.06 60.19,103.52 91.48,130 31.3,26.47 84.26,65 105.93,142.05 21.67,77.03 12.03,192.59 -36.11,269.63 -48.16,77.04 -134.82,115.57 -195,146.87 -60.2,31.3 -93.9,55.36 -117.98,235.93 -24.08,180.56 -38.51,517.62 -50.55,700.6 -12.05,182.97 -21.68,211.85 -101.12,228.69 -79.46,16.86 -228.72,21.69 -380.4,36.13 -151.67,14.45 -305.75,38.52 -380.38,26.47 -74.64,-12.03 -69.81,-60.17 -65,-108.33z" style="fill:#ffccce"/>
      <path d="M20497.42 8477.04c117.96,-101.11 214.26,-298.54 245.56,-430.95 31.3,-132.41 -2.41,-199.83 -36.11,-245.57 -33.7,-45.75 -67.41,-69.82 -134.82,-81.85 -67.41,-12.04 -168.53,-12.04 -231.13,-24.08 -62.59,-12.04 -86.66,-36.1 -122.77,-77.03 -36.12,-40.94 -84.27,-98.72 -190.19,-122.8 -105.94,-24.08 -269.67,-14.43 -409.3,7.24 -139.64,21.65 -255.19,55.36 -361.12,57.76 -105.93,2.41 -202.24,-26.48 -281.68,-57.78 -79.46,-31.3 -142.05,-65 -195,-45.74 -52.98,19.26 -96.32,91.49 -98.72,170.95 -2.41,79.44 36.12,166.1 84.27,228.69 48.15,62.6 105.92,101.13 137.22,132.43 31.3,31.3 36.12,55.36 45.74,69.81 9.63,14.45 24.09,19.26 185.39,12.05 161.3,-7.23 469.47,-26.49 621.14,-12.03 151.68,14.43 146.85,62.57 178.15,156.47 31.3,93.89 98.72,233.54 202.24,300.95 103.51,67.41 243.16,62.59 361.13,-38.52z" style="fill:#080353"/>
      <path d="M16441.07 9768.71c240.77,266.53 629.43,833.99 865.91,1100.51 236.49,266.53 320.8,232.15 526.14,34.4 205.33,-197.76 531.72,-558.86 838.98,-782.39 307.25,-223.55 595.4,-309.53 942.56,-331.03 347.16,-21.49 753.34,21.5 1020.92,42.99 267.57,21.51 396.53,21.51 534.1,464.28 137.58,442.78 283.76,1328.35 359.98,1835.6 76.22,507.28 82.48,636.25 -13.1,714.65 -95.61,78.41 -293.08,106.27 -397.27,133.84 -104.2,27.6 -115.14,54.93 -116.45,105.49 -1.31,50.56 7.01,124.35 30,371.88 22.97,247.55 60.63,668.82 80.71,905.26 20.09,236.44 22.59,288.03 -444.31,322.41 -466.92,34.4 -1403.24,51.6 -1890.26,25.81 -487.02,-25.79 -524.76,-94.59 -523.38,-597.56 1.37,-502.96 41.82,-1440.1 60.38,-1943.06 18.57,-502.98 15.23,-571.76 -42.65,-524.48 -57.89,47.29 -170.33,210.66 -384.77,309.52 -214.43,98.88 -530.88,133.27 -856.17,-103.18 -325.31,-236.43 -659.47,-743.69 -893.19,-1130.6 -233.74,-386.9 -367.05,-653.41 -404.24,-799.57 -37.19,-146.16 21.73,-171.96 84.35,-210.66 62.59,-38.68 128.87,-90.27 208.46,-133.27 79.59,-42.97 172.51,-77.37 413.3,189.16z" style="fill:#4553e7"/>
      <path d="M19463.54 13195.52c88.98,-89.87 104.72,-237.54 66.19,-342.46 -38.54,-104.92 -131.35,-167.08 -219.58,-224.95 -88.24,-57.87 -171.86,-111.42 -267.8,-135.72 -95.96,-24.3 -204.19,-19.34 -222.73,25.32 -18.54,44.67 52.62,129.05 101.3,175.16 48.67,46.12 74.84,53.96 13.73,66.94 -61.12,13 -209.52,31.12 -300.84,99.61 -91.33,68.49 -125.56,187.33 -95.5,281.63 30.05,94.3 124.41,164.03 220.41,194.7 96,30.68 193.68,22.28 323.63,2.01 129.94,-20.25 292.19,-52.35 381.19,-142.24z" style="fill:#ffccce"/>
      <path d="M18049.85 15600.15c-285.92,1295.13 -716.53,3834.09 -941.76,5138.99 -225.22,1304.89 -245.05,1375.75 -371.02,1437.08 -125.99,61.33 -358.14,113.15 -483.92,209.85 -125.79,96.71 -145.23,238.29 -48.7,333.76 96.54,95.47 309.04,144.83 728.47,152.61 419.45,7.79 1045.81,-25.98 1374.11,-53.07 328.3,-27.07 358.5,-47.46 357.68,-193.99 -0.81,-146.53 -32.62,-419.2 -28.97,-671.89 3.66,-252.66 42.79,-485.31 194.15,-1441.15 151.35,-955.84 414.93,-2634.86 546.33,-3545.12 131.4,-910.25 130.61,-1051.73 301.84,-244.2 171.19,807.52 514.4,2564.04 732.6,3644.16 218.18,1080.12 311.37,1483.83 333.32,1796.99 21.94,313.17 -27.37,535.76 311.67,624.84 339.04,89.08 1066.42,44.65 1505.9,22 439.48,-22.64 591.06,-23.48 605.52,-149.88 14.45,-126.39 -108.2,-378.37 -265.59,-513.94 -157.39,-135.55 -349.51,-154.7 -440.45,-154.19 -90.96,0.5 -80.75,20.65 -294.8,-1226.24 -214.07,-1246.89 -652.41,-3760.82 -861.53,-5027.96 -114.23,-692.16 -160.07,-1012.28 -206.13,-1156.02 -49.09,59.81 -164.46,84.53 -427.48,103.83 -468.58,34.39 -1405.74,51.59 -1891.51,25.8 -257.43,-13.67 -388.08,-39.44 -450.2,-135.47 -76.62,195.52 -166.82,512.67 -279.53,1023.21z" style="fill:#080353"/>
      <path d="M15690.53 9710.08c33.53,12.76 68.9,18.25 104.23,17.78l24.55 -15.03c62.59,-38.7 128.9,-90.29 208.46,-133.3 18.71,-10.1 38.14,-19.74 60.06,-25.07 34.34,-65.59 47.41,-141.38 59.45,-214.29 17.18,-104.14 32.31,-202.32 15.69,-299.88 -16.63,-97.55 -64.97,-194.48 -113.31,-193.39 -48.34,1.15 -96.71,100.36 -119.17,163.52 -22.45,63.21 -19.02,90.28 -55.67,39.67 -36.61,-50.62 -113.27,-178.96 -212.82,-234.79 -99.62,-55.76 -222.16,-38.98 -296.23,26.7 -74.04,65.65 -99.61,180.14 -88.79,280.38 10.82,100.18 58.01,186.1 129.18,296.75 71.08,110.6 166.14,245.95 284.37,290.95z" style="fill:#ffccce"/>
      <g>
        <path d="M23447.39 13054.77l0 0c0,276.7 226.39,503.09 503.09,503.09l0 0c-276.7,0 -503.09,226.39 -503.09,503.09l0 0c0,-276.7 -226.39,-503.09 -503.09,-503.09l0 0c276.7,0 503.09,-226.39 503.09,-503.09z" style="fill:#949dfc"/>
        <path d="M1815.4 12665.61l0.01 0c0,201.23 164.65,365.88 365.88,365.88l0 0.01c-201.23,0 -365.88,164.65 -365.88,365.88l-0.01 0c0,-201.23 -164.65,-365.88 -365.88,-365.88l0 -0.01c201.23,0 365.88,-164.65 365.88,-365.88z" style="fill:#949dfc"/>
        <path d="M16444.49 3049.22l0 0c0,352.15 288.13,640.28 640.28,640.28l0 0c-352.15,0 -640.28,288.13 -640.28,640.28l0 0c0,-352.15 -288.13,-640.28 -640.28,-640.28l0 0c352.15,0 640.28,-288.13 640.28,-640.28z" style="fill:#949dfc"/>
        <path d="M5769.25 4210.46l0.01 0c0,201.23 164.65,365.88 365.88,365.88l0 0.01c-201.23,0 -365.88,164.65 -365.88,365.88l-0.01 0c0,-201.23 -164.65,-365.88 -365.88,-365.88l0 -0.01c201.23,0 365.88,-164.65 365.88,-365.88z" style="fill:#949dfc"/>
      </g>
      <path d="M883.37 22866.29l23633.26 0c117.09,0 212.89,95.8 212.89,212.89l0 0.01c0,117.09 -95.8,212.89 -212.89,212.89l-23633.26 0c-117.09,0 -212.89,-95.8 -212.89,-212.89l0 -0.01c0,-117.09 95.8,-212.89 212.89,-212.89z" style="fill:#949dfc"/>
      <path d="M11441.83 2469.57c14.73,5.49 29.34,11.24 43.8,17.23 14.36,5.95 28.71,12.23 43.07,18.83l299.13 -158.35 35.52 23.79c85.46,57.26 164.47,122.15 235.83,193.52 71.37,71.37 136.27,150.38 193.53,235.85l23.79 35.52 -158.37 299.16c6.6,14.34 12.87,28.7 18.83,43.05 5.99,14.45 11.73,29.05 17.21,43.78l323.73 99.62 8.29 41.97c9.54,48.32 16.95,98.7 22.05,151.02 5.04,51.71 7.64,102.6 7.64,152.41 0,49.82 -2.6,100.7 -7.64,152.41 -5.1,52.33 -12.51,102.7 -22.05,151.03l-8.29 41.99 -323.71 99.59c-5.49,14.74 -11.23,29.36 -17.23,43.83 -5.95,14.34 -12.22,28.69 -18.81,43.03l158.35 299.15 -23.79 35.51c-57.26,85.47 -122.14,164.47 -193.5,235.83 -71.38,71.38 -150.39,136.26 -235.86,193.53l-35.52 23.8 -299.16 -158.37c-14.36,6.61 -28.75,12.9 -43.12,18.87 -14.43,5.99 -29.02,11.72 -43.72,17.19l-99.6 323.7 -41.98 8.28c-48.32,9.54 -98.71,16.94 -151.04,22.05 -51.71,5.05 -102.58,7.65 -152.39,7.65 -49.8,0 -100.68,-2.6 -152.37,-7.65 -52.33,-5.11 -102.74,-12.51 -151.07,-22.05l-41.98 -8.28 -99.57 -323.69c-14.76,-5.48 -29.38,-11.22 -43.84,-17.22 -14.35,-5.95 -28.71,-12.24 -43.06,-18.84l-299.13 158.36 -35.51 -23.8c-85.46,-57.25 -164.44,-122.12 -235.81,-193.49 -71.38,-71.38 -136.29,-150.39 -193.57,-235.88l-23.8 -35.51 158.4 -299.19c-6.59,-14.34 -12.88,-28.7 -18.82,-43.03 -5.99,-14.45 -11.73,-29.05 -17.2,-43.77l-323.75 -99.6 -8.29 -41.99c-9.54,-48.33 -16.94,-98.72 -22.05,-151.05 -5.05,-51.71 -7.65,-102.58 -7.65,-152.39 0,-49.8 2.6,-100.66 7.65,-152.34 5.11,-52.34 12.51,-102.75 22.06,-151.09l8.3 -41.97 323.69 -99.61c5.47,-14.75 11.23,-29.37 17.23,-43.84 5.94,-14.35 12.22,-28.69 18.82,-43.02l-158.38 -299.13 23.8 -35.52c57.25,-85.46 122.14,-164.44 193.48,-235.81 71.38,-71.38 150.39,-136.28 235.88,-193.56l35.51 -23.79 299.17 158.37c14.4,-6.62 28.8,-12.92 43.21,-18.9 14.41,-5.98 28.96,-11.71 43.65,-17.17l99.58 -323.68 41.98 -8.3c48.33,-9.54 98.73,-16.94 151.06,-22.05 51.7,-5.05 102.57,-7.65 152.38,-7.65 49.81,0 100.71,2.6 152.41,7.65 52.32,5.1 102.7,12.5 151.02,22.04l41.98 8.3 99.6 323.67zm-11.05 149.33c-22.85,-9.48 -46.08,-18.23 -69.62,-26.21l-34.57 -11.71 -95.53 -310.52c-32.01,-5.39 -63.79,-9.66 -95.26,-12.71 -44.13,-4.31 -90.49,-6.53 -138.98,-6.53 -48.49,0 -94.82,2.22 -138.95,6.53 -31.48,3.06 -63.27,7.33 -95.3,12.72l-95.53 310.52 -34.56 11.71c-23.47,7.95 -46.64,16.69 -69.45,26.16 -23.53,9.75 -46.26,20.08 -68.13,30.89l-32.77 16.2 -287.23 -152.07c-63.45,45.37 -123.39,96.28 -179.18,152.07 -55.77,55.78 -106.65,115.69 -152,179.12l152.05 287.2 -16.19 32.76c-10.79,21.83 -21.08,44.49 -30.81,67.95 -9.47,22.84 -18.23,46.1 -26.21,69.64l-11.72 34.56 -310.53 95.55c-5.39,32.03 -9.65,63.84 -12.72,95.33 -4.31,44.11 -6.53,90.43 -6.53,138.91 0,48.49 2.22,94.82 6.53,138.95 3.07,31.48 7.33,63.27 12.72,95.3l310.55 95.55 11.73 34.56c7.98,23.53 16.73,46.74 26.2,69.58 9.73,23.45 20.02,46.14 30.8,67.97l16.18 32.77 -152.06 287.23c45.37,63.45 96.3,123.39 152.08,179.18 55.78,55.78 115.7,106.66 179.12,152.01l287.17 -152.04 32.77 16.2c21.85,10.8 44.54,21.09 68,30.82 22.85,9.48 46.09,18.23 69.63,26.2l34.56 11.72 95.53 310.51c32.03,5.39 63.83,9.66 95.31,12.72 44.12,4.31 90.46,6.53 138.94,6.53 48.49,0 94.82,-2.22 138.96,-6.53 31.48,-3.06 63.26,-7.33 95.28,-12.72l95.53 -310.51 34.57 -11.72c23.5,-7.96 46.7,-16.71 69.53,-26.18 23.47,-9.73 46.19,-20.05 68.05,-30.87l32.75 -16.19 287.24 152.06c63.44,-45.37 123.38,-96.26 179.16,-152.05 55.78,-55.78 106.66,-115.7 152.02,-179.13l-152.04 -287.19 16.2 -32.77c10.78,-21.81 21.07,-44.5 30.79,-67.97 9.48,-22.85 18.25,-46.09 26.22,-69.64l11.71 -34.56 310.54 -95.54c5.4,-32.01 9.66,-63.8 12.72,-95.28 4.3,-44.13 6.52,-90.47 6.52,-138.97 0,-48.49 -2.22,-94.84 -6.52,-138.97 -3.06,-31.47 -7.32,-63.26 -12.71,-95.27l-310.57 -95.54 -11.72 -34.57c-7.97,-23.53 -16.73,-46.76 -26.19,-69.59 -9.73,-23.46 -20.02,-46.15 -30.81,-67.98l-16.21 -32.74 152.07 -287.25c-45.36,-63.44 -96.26,-123.36 -152.05,-179.15 -55.78,-55.79 -115.71,-106.68 -179.13,-152.04l-287.2 152.05 -32.76 -16.2c-21.83,-10.79 -44.53,-21.09 -67.99,-30.82zm-433.96 334.49c197.04,0 375.45,79.87 504.58,209.01 129.14,129.14 209.02,307.53 209.02,504.57 0,197.04 -79.88,375.44 -209.02,504.57 -129.13,129.14 -307.54,209.02 -504.58,209.02 -197.03,0 -375.43,-79.88 -504.57,-209.02 -129.13,-129.13 -209.02,-307.53 -209.02,-504.57 0,-197.04 79.88,-375.43 209.01,-504.57 129.14,-129.14 307.55,-209.01 504.58,-209.01zm403.27 310.33c-103.19,-103.19 -245.78,-167.02 -403.27,-167.02 -157.48,0 -300.07,63.83 -403.26,167.02 -103.19,103.18 -167.02,245.77 -167.02,403.25 0,157.49 63.84,300.07 167.03,403.26 103.19,103.18 245.77,167.02 403.25,167.02 157.49,0 300.08,-63.84 403.27,-167.02 103.19,-103.19 167.01,-245.77 167.01,-403.26 0,-157.48 -63.82,-300.07 -167.01,-403.25z" style="fill:#d9e8ff;fill-rule:nonzero"/>
      <path d="M21520.62 4153.26c8.33,3.11 16.6,6.36 24.78,9.75 8.12,3.36 16.24,6.92 24.36,10.65l169.23 -89.58 20.09 13.46c48.35,32.39 93.04,69.1 133.41,109.48 40.38,40.37 77.1,85.07 109.49,133.42l13.46 20.1 -89.6 169.24c3.74,8.11 7.29,16.23 10.66,24.35 3.38,8.18 6.63,16.43 9.73,24.77l183.14 56.35 4.69 23.75c5.4,27.34 9.59,55.84 12.48,85.44 2.85,29.25 4.32,58.04 4.32,86.22 0,28.18 -1.47,56.97 -4.32,86.22 -2.89,29.6 -7.08,58.1 -12.48,85.44l-4.69 23.75 -183.13 56.34c-3.1,8.35 -6.35,16.62 -9.74,24.8 -3.37,8.11 -6.92,16.23 -10.64,24.35l89.58 169.23 -13.46 20.09c-32.39,48.35 -69.1,93.04 -109.47,133.41 -40.38,40.38 -85.08,77.09 -133.43,109.49l-20.09 13.46 -169.24 -89.59c-8.13,3.74 -16.27,7.3 -24.4,10.67 -8.16,3.39 -16.42,6.63 -24.73,9.73l-56.35 183.12 -23.75 4.69c-27.33,5.4 -55.84,9.58 -85.45,12.47 -29.25,2.86 -58.03,4.33 -86.21,4.33 -28.17,0 -56.95,-1.47 -86.2,-4.33 -29.6,-2.89 -58.12,-7.07 -85.46,-12.47l-23.75 -4.69 -56.33 -183.12c-8.35,-3.1 -16.62,-6.35 -24.8,-9.74 -8.12,-3.36 -16.24,-6.92 -24.36,-10.66l-169.22 89.59 -20.09 -13.46c-48.35,-32.39 -93.03,-69.09 -133.41,-109.46 -40.38,-40.39 -77.1,-85.08 -109.5,-133.45l-13.47 -20.09 89.61 -169.25c-3.73,-8.12 -7.28,-16.24 -10.65,-24.35 -3.38,-8.17 -6.63,-16.43 -9.73,-24.76l-183.15 -56.35 -4.69 -23.75c-5.39,-27.34 -9.58,-55.85 -12.47,-85.45 -2.86,-29.25 -4.33,-58.03 -4.33,-86.21 0,-28.18 1.47,-56.95 4.33,-86.19 2.89,-29.61 7.08,-58.12 12.48,-85.47l4.69 -23.75 183.12 -56.34c3.1,-8.35 6.35,-16.62 9.75,-24.81 3.36,-8.11 6.92,-16.23 10.64,-24.34l-89.59 -169.22 13.46 -20.09c32.39,-48.35 69.1,-93.03 109.46,-133.41 40.38,-40.38 85.08,-77.09 133.44,-109.5l20.09 -13.46 169.25 89.6c8.14,-3.75 16.29,-7.31 24.44,-10.69 8.15,-3.39 16.39,-6.63 24.69,-9.72l56.34 -183.11 23.75 -4.7c27.34,-5.39 55.85,-9.58 85.46,-12.47 29.25,-2.86 58.02,-4.33 86.2,-4.33 28.18,0 56.97,1.47 86.23,4.33 29.59,2.88 58.1,7.07 85.43,12.47l23.75 4.69 56.35 183.11zm-6.26 84.48c-12.92,-5.36 -26.07,-10.32 -39.38,-14.83l-19.56 -6.62 -54.04 -175.67c-18.11,-3.05 -36.09,-5.46 -53.89,-7.19 -24.97,-2.44 -51.19,-3.7 -78.63,-3.7 -27.43,0 -53.64,1.26 -78.6,3.7 -17.81,1.73 -35.8,4.14 -53.92,7.2l-54.04 175.66 -19.55 6.63c-13.28,4.5 -26.39,9.44 -39.29,14.8 -13.31,5.51 -26.17,11.35 -38.55,17.47l-18.54 9.17 -162.49 -86.03c-35.89,25.66 -69.8,54.47 -101.36,86.03 -31.55,31.55 -60.34,65.45 -85.99,101.33l86.02 162.48 -9.16 18.53c-6.11,12.35 -11.93,25.17 -17.43,38.44 -5.36,12.92 -10.32,26.08 -14.83,39.4l-6.63 19.55 -175.67 54.05c-3.06,18.12 -5.47,36.12 -7.2,53.93 -2.44,24.96 -3.69,51.16 -3.69,78.59 0,27.43 1.25,53.64 3.69,78.61 1.73,17.81 4.14,35.79 7.2,53.91l175.68 54.05 6.64 19.55c4.51,13.31 9.46,26.45 14.81,39.37 5.51,13.27 11.33,26.1 17.43,38.45l9.16 18.54 -86.03 162.49c25.67,35.9 54.48,69.81 86.04,101.37 31.55,31.55 65.45,60.34 101.33,85.99l162.46 -86.01 18.54 9.16c12.36,6.11 25.19,11.94 38.47,17.44 12.92,5.36 26.07,10.31 39.39,14.82l19.55 6.63 54.04 175.67c18.12,3.05 36.11,5.46 53.92,7.19 24.96,2.44 51.18,3.7 78.6,3.7 27.44,0 53.65,-1.26 78.61,-3.7 17.81,-1.73 35.8,-4.14 53.91,-7.19l54.04 -175.67 19.56 -6.63c13.29,-4.5 26.42,-9.45 39.33,-14.81 13.28,-5.5 26.14,-11.34 38.5,-17.46l18.53 -9.16 162.5 86.02c35.89,-25.66 69.79,-54.45 101.35,-86.02 31.56,-31.55 60.34,-65.45 86,-101.33l-86.01 -162.47 9.16 -18.54c6.1,-12.34 11.92,-25.18 17.42,-38.45 5.37,-12.93 10.33,-26.08 14.84,-39.4l6.62 -19.55 175.68 -54.05c3.05,-18.11 5.47,-36.09 7.2,-53.9 2.43,-24.97 3.69,-51.18 3.69,-78.62 0,-27.43 -1.26,-53.66 -3.69,-78.62 -1.73,-17.81 -4.15,-35.79 -7.19,-53.9l-175.7 -54.05 -6.63 -19.55c-4.51,-13.32 -9.47,-26.46 -14.82,-39.37 -5.5,-13.28 -11.32,-26.11 -17.43,-38.46l-9.17 -18.53 86.03 -162.5c-25.66,-35.88 -54.45,-69.79 -86.01,-101.35 -31.56,-31.56 -65.47,-60.35 -101.34,-86.01l-162.48 86.02 -18.53 -9.17c-12.35,-6.1 -25.2,-11.92 -38.47,-17.43zm-245.5 189.23c111.47,0 212.4,45.18 285.46,118.24 73.05,73.06 118.24,173.98 118.24,285.45 0,111.47 -45.19,212.39 -118.24,285.45 -73.06,73.05 -173.99,118.24 -285.46,118.24 -111.46,0 -212.39,-45.19 -285.44,-118.24 -73.06,-73.06 -118.25,-173.98 -118.25,-285.45 0,-111.47 45.19,-212.39 118.24,-285.45 73.06,-73.06 173.99,-118.24 285.45,-118.24zm228.14 175.56c-58.37,-58.38 -139.04,-94.49 -228.14,-94.49 -89.09,0 -169.76,36.11 -228.13,94.49 -58.38,58.37 -94.49,139.03 -94.49,228.13 0,89.09 36.12,169.75 94.49,228.13 58.38,58.37 139.04,94.49 228.13,94.49 89.1,0 169.77,-36.12 228.14,-94.49 58.38,-58.38 94.49,-139.04 94.49,-228.13 0,-89.1 -36.11,-169.76 -94.49,-228.13z" style="fill:#d9e8ff;fill-rule:nonzero"/>
      <path d="M14890.33 14554.92c8.33,3.11 16.6,6.36 24.78,9.75 8.12,3.36 16.24,6.92 24.36,10.65l169.23 -89.58 20.09 13.46c48.35,32.39 93.04,69.1 133.41,109.48 40.38,40.37 77.1,85.07 109.49,133.42l13.46 20.1 -89.6 169.24c3.74,8.11 7.29,16.23 10.66,24.35 3.38,8.18 6.63,16.43 9.73,24.77l183.14 56.35 4.69 23.75c5.4,27.34 9.59,55.84 12.48,85.44 2.85,29.25 4.32,58.04 4.32,86.22 0,28.18 -1.47,56.97 -4.32,86.22 -2.89,29.6 -7.08,58.1 -12.48,85.44l-4.69 23.75 -183.13 56.34c-3.1,8.35 -6.35,16.62 -9.74,24.8 -3.37,8.11 -6.92,16.23 -10.64,24.35l89.58 169.23 -13.46 20.09c-32.39,48.35 -69.1,93.04 -109.47,133.41 -40.38,40.38 -85.08,77.09 -133.43,109.49l-20.09 13.46 -169.24 -89.59c-8.13,3.74 -16.27,7.3 -24.4,10.67 -8.16,3.39 -16.42,6.63 -24.73,9.73l-56.35 183.12 -23.75 4.69c-27.33,5.4 -55.84,9.58 -85.45,12.47 -29.25,2.86 -58.03,4.33 -86.21,4.33 -28.17,0 -56.95,-1.47 -86.2,-4.33 -29.6,-2.89 -58.12,-7.07 -85.46,-12.47l-23.75 -4.69 -56.33 -183.12c-8.35,-3.1 -16.62,-6.35 -24.8,-9.74 -8.12,-3.36 -16.24,-6.92 -24.36,-10.66l-169.22 89.59 -20.09 -13.46c-48.35,-32.39 -93.03,-69.09 -133.41,-109.46 -40.38,-40.39 -77.1,-85.08 -109.5,-133.45l-13.47 -20.09 89.61 -169.25c-3.73,-8.12 -7.28,-16.24 -10.65,-24.35 -3.38,-8.17 -6.63,-16.43 -9.73,-24.76l-183.15 -56.35 -4.69 -23.75c-5.39,-27.34 -9.58,-55.85 -12.47,-85.45 -2.86,-29.25 -4.33,-58.03 -4.33,-86.21 0,-28.18 1.47,-56.95 4.33,-86.19 2.89,-29.61 7.08,-58.12 12.48,-85.47l4.69 -23.75 183.12 -56.34c3.1,-8.35 6.35,-16.62 9.75,-24.81 3.36,-8.11 6.92,-16.23 10.64,-24.34l-89.59 -169.22 13.46 -20.09c32.39,-48.35 69.1,-93.03 109.46,-133.41 40.38,-40.38 85.08,-77.09 133.44,-109.5l20.09 -13.46 169.25 89.6c8.14,-3.75 16.29,-7.31 24.44,-10.69 8.15,-3.39 16.39,-6.63 24.69,-9.72l56.34 -183.11 23.75 -4.7c27.34,-5.39 55.85,-9.58 85.46,-12.47 29.25,-2.86 58.02,-4.33 86.2,-4.33 28.18,0 56.97,1.47 86.23,4.33 29.59,2.88 58.1,7.07 85.43,12.47l23.75 4.69 56.35 183.11zm-6.26 84.48c-12.92,-5.36 -26.07,-10.32 -39.38,-14.83l-19.56 -6.62 -54.04 -175.67c-18.11,-3.05 -36.09,-5.46 -53.89,-7.19 -24.97,-2.44 -51.19,-3.7 -78.63,-3.7 -27.43,0 -53.64,1.26 -78.6,3.7 -17.81,1.73 -35.8,4.14 -53.92,7.2l-54.04 175.66 -19.55 6.63c-13.28,4.5 -26.39,9.44 -39.29,14.8 -13.31,5.51 -26.17,11.35 -38.55,17.47l-18.54 9.17 -162.49 -86.03c-35.89,25.66 -69.8,54.47 -101.36,86.03 -31.55,31.55 -60.34,65.45 -85.99,101.33l86.02 162.48 -9.16 18.53c-6.11,12.35 -11.93,25.17 -17.43,38.44 -5.36,12.92 -10.32,26.08 -14.83,39.4l-6.63 19.55 -175.67 54.05c-3.06,18.12 -5.47,36.12 -7.2,53.93 -2.44,24.96 -3.69,51.16 -3.69,78.59 0,27.43 1.25,53.64 3.69,78.61 1.73,17.81 4.14,35.79 7.2,53.91l175.68 54.05 6.64 19.55c4.51,13.31 9.46,26.45 14.81,39.37 5.51,13.27 11.33,26.1 17.43,38.45l9.16 18.54 -86.03 162.49c25.67,35.9 54.48,69.81 86.04,101.37 31.55,31.55 65.45,60.34 101.33,85.99l162.46 -86.01 18.54 9.16c12.36,6.11 25.19,11.94 38.47,17.44 12.92,5.36 26.07,10.31 39.39,14.82l19.55 6.63 54.04 175.67c18.12,3.05 36.11,5.46 53.92,7.19 24.96,2.44 51.18,3.7 78.6,3.7 27.44,0 53.65,-1.26 78.61,-3.7 17.81,-1.73 35.8,-4.14 53.91,-7.19l54.04 -175.67 19.56 -6.63c13.29,-4.5 26.42,-9.45 39.33,-14.81 13.28,-5.5 26.14,-11.34 38.5,-17.46l18.53 -9.16 162.5 86.02c35.89,-25.66 69.79,-54.45 101.35,-86.02 31.56,-31.55 60.34,-65.45 86,-101.33l-86.01 -162.47 9.16 -18.54c6.1,-12.34 11.92,-25.18 17.42,-38.45 5.37,-12.93 10.33,-26.08 14.84,-39.4l6.62 -19.55 175.68 -54.05c3.05,-18.11 5.47,-36.09 7.2,-53.9 2.43,-24.97 3.69,-51.18 3.69,-78.62 0,-27.43 -1.26,-53.66 -3.69,-78.62 -1.73,-17.81 -4.15,-35.79 -7.19,-53.9l-175.7 -54.05 -6.63 -19.55c-4.51,-13.32 -9.47,-26.46 -14.82,-39.37 -5.5,-13.28 -11.32,-26.11 -17.43,-38.46l-9.17 -18.53 86.03 -162.5c-25.66,-35.88 -54.45,-69.79 -86.01,-101.35 -31.56,-31.56 -65.47,-60.35 -101.34,-86.01l-162.48 86.02 -18.53 -9.17c-12.35,-6.1 -25.2,-11.92 -38.47,-17.43zm-245.5 189.23c111.47,0 212.4,45.18 285.46,118.24 73.05,73.06 118.24,173.98 118.24,285.45 0,111.47 -45.19,212.39 -118.24,285.45 -73.06,73.05 -173.99,118.24 -285.46,118.24 -111.46,0 -212.39,-45.19 -285.44,-118.24 -73.06,-73.06 -118.25,-173.98 -118.25,-285.45 0,-111.47 45.19,-212.39 118.24,-285.45 73.06,-73.06 173.99,-118.24 285.45,-118.24zm228.14 175.56c-58.37,-58.38 -139.04,-94.49 -228.14,-94.49 -89.09,0 -169.76,36.11 -228.13,94.49 -58.38,58.37 -94.49,139.03 -94.49,228.13 0,89.09 36.12,169.75 94.49,228.13 58.38,58.37 139.04,94.49 228.13,94.49 89.1,0 169.77,-36.12 228.14,-94.49 58.38,-58.38 94.49,-139.04 94.49,-228.13 0,-89.1 -36.11,-169.76 -94.49,-228.13z" style="fill:#d9e8ff;fill-rule:nonzero"/>
    </g>
  </g>
</svg>
