<svg version="1.1" id="Capa_1" xmlns="http://www.w3.org/2000/svg" xmlns:xlink="http://www.w3.org/1999/xlink" x="0px" y="0px" viewBox="0 0 512 512" style="enable-background:new 0 0 512 512;" xml:space="preserve">
<g>
	<g>
		<path style="fill:#FFFFFF;" d="M489.5,147.5h-130c-8.284,0-15-6.716-15-15v-110c0-8.284,6.716-15,15-15h130&#10;&#9;&#9;&#9;c8.284,0,15,6.716,15,15v110C504.5,140.784,497.784,147.5,489.5,147.5z"/>
		<path style="fill:#E3EDF6;" d="M369.5,132.5v-110c0-8.284,6.716-15,15-15h-25c-8.284,0-15,6.716-15,15v110c0,8.284,6.716,15,15,15&#10;&#9;&#9;&#9;h25C376.216,147.5,369.5,140.784,369.5,132.5z"/>
		<g>
			<path style="fill:#FF6A47;" d="M352.973,170.391l-122.385,43.84c-7.799,2.794-16.386-1.264-19.18-9.063l-37.095-103.556&#10;&#9;&#9;&#9;&#9;c-2.794-7.799,1.264-16.386,9.063-19.18l122.385-43.84c7.799-2.794,16.386,1.264,19.18,9.063l37.095,103.556&#10;&#9;&#9;&#9;&#9;C364.829,159.01,360.772,167.598,352.973,170.391z"/>
			<polygon style="fill:#FFFFFF;" points="256.442,167.792 232.836,101.892 297.358,115.957 &#9;&#9;&#9;"/>
			<path style="fill:#FD3501;" d="M230.237,198.424L193.141,94.867c-2.794-7.799,1.264-16.386,9.062-19.18l-18.828,6.744&#10;&#9;&#9;&#9;&#9;c-7.799,2.794-11.857,11.381-9.063,19.18l37.095,103.556c2.794,7.799,11.381,11.857,19.18,9.063l18.828-6.744&#10;&#9;&#9;&#9;&#9;C241.617,210.28,233.03,206.222,230.237,198.424z"/>
		</g>
		<path style="fill:#FFC277;" d="M294.454,365.749h36.452c9.366,0,16.441,8.488,14.755,17.701l-19.783,108.061&#10;&#9;&#9;&#9;c-1.377,7.524-7.934,12.989-15.582,12.989h0h0.159H37.5c-16.569,0-30-13.431-30-30v-173c0-8.284,6.716-15,15-15h71.558&#10;&#9;&#9;&#9;c13.519,0,25.895,7.585,32.031,19.631l0,0c6.136,12.046,18.512,19.631,32.031,19.631h121.333c8.284,0,15,6.716,15,15V365.749z"/>
		<polygon style="fill:#A4FEF1;" points="504.5,231.372 391.366,231.372 391.366,209.598 330.45,264.598 391.366,319.598 &#10;&#9;&#9;&#9;391.366,297.825 504.5,297.825 &#9;&#9;"/>
		<g>
			<path style="fill:#FFFFFF;" d="M181.694,254.618l-130,0c-8.284,0-15-6.716-15-15l0-110c0-8.284,6.716-15,15-15l130,0&#10;&#9;&#9;&#9;&#9;c8.284,0,15,6.716,15,15l0,110C196.694,247.903,189.978,254.618,181.694,254.618z"/>
			<path style="fill:#E3EDF6;" d="M61.694,240.118l0-111c0-6.975,4.768-12.821,11.218-14.5H51.694c-8.284,0-15,6.716-15,15l0,110&#10;&#9;&#9;&#9;&#9;c0,8.284,6.716,15,15,15h21.218C66.462,252.94,61.694,247.094,61.694,240.118z"/>
			<path style="fill:#8AE897;" d="M36.694,231.824v7.794c0,8.284,6.716,15,15,15l130,0c8.284,0,15-6.716,15-15v-23.382&#10;&#9;&#9;&#9;&#9;l-45.441-45.066l-36.831,41.468l-0.837-0.67l-31.04-25.02L36.694,231.824L36.694,231.824z"/>
			<path style="fill:#54E072;" d="M61.694,240.118l0-32.763l-25,24.469v7.794c0,8.284,6.716,15,15,15h21.218&#10;&#9;&#9;&#9;&#9;C66.462,252.939,61.694,247.094,61.694,240.118z"/>
		</g>
		<path style="fill:#FCAD42;" d="M32.5,474.5v-173c0-8.284,6.716-15,15-15h-25c-8.284,0-15,6.716-15,15v173&#10;&#9;&#9;&#9;c0,16.569,13.431,30,30,30h25C45.931,504.5,32.5,491.069,32.5,474.5z"/>
		<polygon style="fill:#24EED7;" points="355.45,264.598 392.25,231.372 391.366,231.372 391.366,209.598 330.45,264.598 &#10;&#9;&#9;&#9;391.366,319.598 391.366,297.825 392.25,297.825 &#9;&#9;"/>
	</g>
	<g>
		<path style="fill:none;stroke:#000000;stroke-width:15;stroke-miterlimit:10;" d="M310.45,504.5h-0.15H37.5&#10;&#9;&#9;&#9;c-16.57,0-30-13.43-30-30v-173c0-8.28,6.72-15,15-15h71.56c6.76,0,13.23,1.9,18.78,5.3c5.55,3.4,10.18,8.3,13.25,14.33&#10;&#9;&#9;&#9;c6.14,12.05,18.51,19.63,32.03,19.63h75.8"/>
		<path style="fill:none;stroke:#000000;stroke-width:15;stroke-miterlimit:10;" d="M248.92,325.76h30.53c8.29,0,15,6.72,15,15&#10;&#9;&#9;&#9;v24.99"/>
		<path style="fill:none;stroke:#000000;stroke-width:15;stroke-miterlimit:10;" d="M310.3,504.5c-4.38,0-8.34-1.77-11.21-4.64&#10;&#9;&#9;&#9;c-2.87-2.86-4.64-6.82-4.64-11.2V365.75h36.46c9.36,0,16.44,8.49,14.75,17.7l-19.78,108.06c-1.37,7.47-7.85,12.92-15.43,12.99&#10;&#9;&#9;&#9;H310.3"/>
		<polyline style="fill:none;stroke:#000000;stroke-width:15;stroke-miterlimit:10;" points="458.22,297.82 504.5,297.82 &#10;&#9;&#9;&#9;504.5,231.37 391.37,231.37 391.37,209.6 330.45,264.6 391.37,319.6 391.37,297.82 443.22,297.82 &#9;&#9;"/>
		<path style="fill:none;stroke:#000000;stroke-width:15;stroke-miterlimit:10;" d="M196.69,164.08l14.72,41.09&#10;&#9;&#9;&#9;c2.79,7.8,11.38,11.85,19.18,9.06l122.38-43.84c7.8-2.79,11.86-11.38,9.07-19.18l-37.1-103.56c-2.79-7.79-11.38-11.85-19.18-9.06&#10;&#9;&#9;&#9;L183.38,82.43c-7.8,2.8-11.86,11.38-9.07,19.18l4.66,13.01"/>
		<polygon style="fill:none;stroke:#000000;stroke-width:15;stroke-miterlimit:10;" points="256.442,167.792 232.836,101.892 &#10;&#9;&#9;&#9;297.358,115.957 &#9;&#9;"/>
		<path style="fill:none;stroke:#000000;stroke-width:15;stroke-miterlimit:10;" d="M181.694,254.618l-130,0&#10;&#9;&#9;&#9;c-8.284,0-15-6.716-15-15l0-110c0-8.284,6.716-15,15-15l130,0c8.284,0,15,6.716,15,15l0,110&#10;&#9;&#9;&#9;C196.694,247.903,189.978,254.618,181.694,254.618z"/>
		<polyline style="fill:none;stroke:#000000;stroke-width:15;stroke-miterlimit:10;" points="196.694,216.236 151.253,171.17 &#10;&#9;&#9;&#9;77.135,254.618 &#9;&#9;"/>
		<polyline style="fill:none;stroke:#000000;stroke-width:15;stroke-miterlimit:10;" points="36.694,231.824 82.544,186.948 &#10;&#9;&#9;&#9;113.584,211.968 &#9;&#9;"/>
		<circle style="fill:none;stroke:#000000;stroke-width:15;stroke-miterlimit:10;" cx="110.194" cy="155.295" r="15"/>
		<path style="fill:none;stroke:#000000;stroke-width:15;stroke-miterlimit:10;" d="M360.71,147.5H489.5c8.28,0,15-6.72,15-15v-110&#10;&#9;&#9;&#9;c0-8.28-6.72-15-15-15h-130c-8.28,0-15,6.72-15,15v79.75"/>
		<g>
			<circle style="fill:none;stroke:#000000;stroke-width:15;stroke-miterlimit:10;" cx="394.5" cy="105.647" r="15"/>
			<circle style="fill:none;stroke:#000000;stroke-width:15;stroke-miterlimit:10;" cx="454.5" cy="105.647" r="15"/>
			<polyline style="fill:none;stroke:#000000;stroke-width:15;stroke-miterlimit:10;" points="409.5,105.647 409.5,34.353 &#10;&#9;&#9;&#9;&#9;469.5,34.353 469.5,105.647 &#9;&#9;&#9;"/>
			<line style="fill:none;stroke:#000000;stroke-width:15;stroke-miterlimit:10;" x1="409.5" y1="64.647" x2="469.5" y2="64.647"/>
		</g>
	</g>
	<g>
		<line style="fill:none;stroke:#FFFFFF;stroke-width:15;stroke-miterlimit:10;" x1="43.294" y1="319.6" x2="58.294" y2="319.6"/>
		<line style="fill:none;stroke:#FFFFFF;stroke-width:15;stroke-miterlimit:10;" x1="73.294" y1="319.6" x2="88.294" y2="319.6"/>
	</g>
</g>
<g>
</g>
<g>
</g>
<g>
</g>
<g>
</g>
<g>
</g>
<g>
</g>
<g>
</g>
<g>
</g>
<g>
</g>
<g>
</g>
<g>
</g>
<g>
</g>
<g>
</g>
<g>
</g>
<g>
</g>
</svg>