<svg xmlns="http://www.w3.org/2000/svg" xml:space="preserve" id="Layer_1" x="0" y="0" style="enable-background:new 0 0 600 600" version="1.1" viewBox="0 0 600 600">
  <g id="No_Assignments_1_">
    <g id="No_Assignments">
      <g>
        <g>
          <path d="M132.5646667,502.5470276c-37.305275-14.2264404-68.0007019-44.8828735-82.2745209-82.1700439
					c-3.2834396-8.57724-5.7478294-17.5531311-6.2087364-26.7257996c-0.5118828-10.1872253,1.4552155-20.34375,4.07621-30.2013245
					c5.7378006-21.5799255,14.778614-42.4858398,28.361927-60.2096863
					c11.3158493-14.7651062,29.0966492-28.351532,37.1238861-45.2565308
					c8.8462143-18.629715,4.0335007-43.3039703,4.9307632-63.1916046
					c1.1012268-24.4086456,8.2826309-49.1381989,23.8756332-67.9491882s40.3574982-30.8159103,64.5708313-27.5434341
					c25.6896515,3.4720001,48.3365479,22.9911423,74.1984558,21.2091141
					c22.7980347-1.5709076,40.7530518-19.1152954,60.9538879-29.7991028
					c48.5475159-25.6758041,113.8130493-7.7383194,147.3171387,35.7770004
					c11.8442078,15.3833389,20.3231506,34.0009995,20.5725708,53.4141312
					c0.2409363,18.7505035-7.0561523,36.6416473-11.8794556,54.7627563s-6.8995667,38.5977325,2.8233948,54.6321564
					c6.9835205,11.5167236,18.9671631,18.9176941,28.3890991,28.5422974
					c25.6571655,26.2091064,30.2476807,67.0458984,23.8783569,103.1657104
					c-5.5299683,31.3596191-16.5126953,50.7331543-43.5090332,67.6229248
					c-48.4218445,30.2942505-103.0097656,23.9019165-157.8143005,7.9816589" style="fill:#e7edf0"/>
          <g>
            <path d="M112.8362961,279.0605164c0.564209,5.9860535,6.0509033,65.3106689,6.8166122,69.8766785
						c4.7389221,29.1824646,26.1205597,53.9642334,54.4925079,57.888916l1.5520325-1.6772156
						c0,0,20.7164764-43.2255554-9.7476959-85.0156555c-0.4681702-0.6455383-0.9502258-1.2862549-1.4447174-1.9353333
						C151.2609558,300.9673767,132.3848267,288.3460388,112.8362961,279.0605164z" style="fill:#0ebf7b"/>
            <path d="M117.8658142,283.4993286c0,0,36.279892,33.0579834,46.3459473,113.2413635
						C164.2117615,396.7406921,147.8548737,319.4598083,117.8658142,283.4993286z" style="fill:#25e691"/>
            <path d="M116.5789566,318.7753601c0.1027832,1.0712585,0.2045212,2.1490173,0.3053665,3.2333984
						c9.8028641,3.3764343,19.7820587,6.2419739,29.9047394,9.612793c1.7727814-7.9713745,3.1522217-14.347168,6.2210083-26.053772
						c-0.5345001-0.5006104-1.0757446-1.0021057-1.6242981-1.4979248
						c-1.8479156,8.6630249-4.3836517,17.1605835-7.3417358,25.4337463
						C134.8029175,324.8769226,125.9172668,322.4263,116.5789566,318.7753601z" style="fill:#25e691"/>
            <path d="M119.2702103,346.2755432c0.1068878,0.8911133,0.2345657,1.7783203,0.3826981,2.6616516
						c11.2389221,4.1836243,25.0138397,8.7303772,35.9954834,12.390686
						c0.0345001-0.1559143-0.2445221-0.5937195-1.1003571-0.6373291c2.3995972-10.2549438,6.2864532-23.050415,11.4017181-40.557312
						c-0.4681702-0.6455383-0.9502258-1.2862549-1.4447174-1.9353333
						c-3.0915833,11.7446289-9.435379,31.3567505-12.2033386,39.1439514
						C152.3016968,357.3418579,129.8909302,350.9711304,119.2702103,346.2755432z" style="fill:#25e691"/>
          </g>
          <g>
            <path d="M65.6934509,363.590332c0.0536728,0.1459045,13.1478424,35.9292908,22.5984421,61.3590088
						c0.2503662,0.6705627,0.5065079,1.3337708,0.7750092,1.9887085c0.3307495,0.8343201,0.6806107,1.6595764,1.0492554,2.4758606
						c12.0290756,27.006958,39.0268326,45.5118713,67.4609451,42.0663757l1.0726471-2.0177612
						c-0.0479584-0.1000061,11.2248993-58.8266907-47.348259-90.4945068
						C97.0614319,371.2880249,81.4693222,366.5491943,65.6934509,363.590332z" style="fill:#0ebf7b"/>
            <path d="M71.6891861,366.5986938c0,0,43.5147476,22.7052002,73.709465,97.6650696
						C145.3986511,464.2637634,109.8620682,393.7156677,71.6891861,366.5986938z" style="fill:#25e691"/>
            <path d="M79.4469986,401.0351563c0.3727493,1.009552,0.7461548,2.0256653,1.1203842,3.0484314
						c10.3399277,0.763031,20.7199783,0.9871216,31.3677063,1.6631165
						c-0.3201141-8.1598206-0.6133881-14.6765442-0.6335983-26.7786865c-0.6445541-0.3476257-1.2958603-0.694397-1.952774-1.0338135
						c0.4239731,8.8477478,0.1406784,17.7110596-0.6082535,26.4651794
						C98.6246414,402.2841187,89.407814,402.1821899,79.4469986,401.0351563z" style="fill:#25e691"/>
            <path d="M89.0669022,426.9380493c0.3307495,0.8343201,0.6806107,1.6595764,1.0492554,2.4758606
						c11.9344406,1.177063,26.4135513,2.058075,37.9656906,2.7947998c-0.0064545-0.1595764-0.3879471-0.5116882-1.2265701-0.3354492
						c-0.296814-10.527771,0.1960831-23.8914795,0.6744232-42.1240845c-0.6174088-0.5046997-1.2470093-1.0011902-1.8907623-1.502594
						c0.0078812,12.1447144-1.1210861,32.7263489-1.8101807,40.9620972
						C123.8287582,429.2086792,100.5342484,428.7678833,89.0669022,426.9380493z" style="fill:#25e691"/>
          </g>
          <g>
            <path d="M371.9805603,239.934433c-25.9161377,282.4490356-22.3063354,243.1074066-22.8314819,248.8306732
						c-0.4448242,4.7988586-4.6351318,8.3570557-9.4417419,8.0058899l-186.4298401-13.4835815
						c-5.0407257-0.3589783-8.7551575-4.8768921-8.1308746-9.8942261
						c0.7636414-6.1808167,28.2521515-228.6664734,30.4552307-246.4976349
						c0.5696106-4.6349945,4.6505737-8.0214844,9.3167725-7.7327728l178.8142548,11.1505127
						C368.7033081,230.6176147,372.4410095,234.9717255,371.9805603,239.934433z" style="fill:#e7edef"/>
            <path d="M340.7532959,486.2262878l-186.4366913-13.4830933
						c-2.3825073-0.1726685-4.1130524-2.2990723-3.8222656-4.6520996l29.7519073-240.6199341
						c0.2610168-2.1114349,2.1149139-3.7710419,4.3792877-3.6355743l178.8188324,11.1467438
						c2.3252563,0.1458282,4.0920715,2.1777954,3.8778992,4.5256042L345.1882324,482.462677
						C344.9793701,484.7400208,343.0146179,486.3937988,340.7532959,486.2262878z" style="fill:#fefefe"/>
            <path d="M371.9805603,239.934433l-0.1013489,1.1392059
						c-8.9598694-0.5797119-186.9345856-12.0950928-196.4568176-12.7111053l0.1794586-1.46698
						c0.5696106-4.6349945,4.6505737-8.0214844,9.3167725-7.7327728l178.8142548,11.1505127
						C368.7033081,230.6176147,372.4410095,234.9717255,371.9805603,239.934433z" style="fill:#ef5d5f"/>
            <g>
              <path d="M182.4443207,242.5116119c-0.4136505-1.8552551-2.4891663-2.6608734-4.2769623-3.059433
							c-7.2173767-1.6137695-14.5455627-1.617569-21.3636017-0.2599945
							c-1.0595856,0.2039795-3.1478119,0.6021576-3.6622009,1.7762909c-0.5009766,1.1327667,0.4351044,2.536911,1.4450684,3.0021667
							c2.0122986,0.9428253,4.1295776-0.2906342,12.2802277,0.6405182
							c7.5818939,0.8604431,9.7884979,2.5591431,12.6365204,1.8729095
							C181.2470703,246.0721893,182.8399811,244.3271942,182.4443207,242.5116119z M175.0108643,243.9160004
							c-5.1664734-0.6403046-10.2051697-1.8891144-15.2690735-1.7134247
							c-0.7644348,0.0253143-2.2117004,0.429245-2.5853271-0.550293c-0.4370575-1.1386414,0.9535217-1.0029602,1.6611633-1.0658264
							c5.5255432-0.5134277,10.9144745-0.0661774,15.9157104,1.1010742c0.9256592,0.2097626,1.9437256,0.5363922,2.3974152,1.405899
							C176.9259186,243.9255524,175.8373871,244.0254669,175.0108643,243.9160004z" style="fill:#017afa"/>
              <path d="M179.5033722,246.4840698c-2.8415222,0.6846619-5.0041809-1.0067444-12.6365204-1.8729095
							c0.0908356-0.6308746,0.1736603-1.261322,0.2331085-1.8904419c2.638443,0.3766327,5.2672882,0.8676453,7.9109039,1.195282
							c0.8265228,0.1094666,1.9150543,0.009552,2.1198883-0.8225708c-0.4536896-0.8695068-1.471756-1.1961365-2.3974152-1.405899
							c-2.4854431-0.5800934-5.0073547-0.9712524-7.533844-1.1588898c0.0044556-0.7806244-0.0374451-1.5505829-0.1495361-2.3167419
							c3.7353973-0.0000458,7.4625092,0.4230652,11.1174011,1.2402802c1.787796,0.3985596,3.8633118,1.2041779,4.2769623,3.059433
							C182.8399811,244.3271942,181.2470703,246.0721893,179.5033722,246.4840698z" style="fill:#0e7073"/>
            </g>
            <g>
              <path d="M182.5060883,262.2084656c-0.4136505-1.8552551-2.4891663-2.6608582-4.2769623-3.0594177
							c-7.2173767-1.6137695-14.5455627-1.6175842-21.3636017-0.2600098
							c-1.0595856,0.2039795-3.1478119,0.6021423-3.6622009,1.7762756c-0.5009766,1.132782,0.4351044,2.5369263,1.4450684,3.0021667
							c2.0122986,0.9428406,4.1295776-0.2906189,12.2802277,0.6405334
							c7.5818939,0.8604431,9.7884979,2.5591431,12.6365204,1.8728943
							C181.3088379,265.769043,182.9017487,264.0240479,182.5060883,262.2084656z M175.0726318,263.612854
							c-5.1664734-0.6402893-10.2051697-1.8890991-15.2690735-1.7134399
							c-0.7644348,0.0253296-2.2117004,0.4292603-2.5853271-0.550293c-0.4370575-1.1386108,0.9535217-1.0029297,1.6611633-1.0657959
							c5.5255432-0.5134277,10.9144745-0.0661926,15.9157104,1.1010742c0.9256592,0.2097473,1.9437256,0.536377,2.3974152,1.4058838
							C176.9876862,263.622406,175.8991547,263.7223206,175.0726318,263.612854z" style="fill:#017afa"/>
              <path d="M179.5651398,266.1809082c-2.8415222,0.6846619-5.0041809-1.0067139-12.6365204-1.8728943
							c0.0908356-0.6308899,0.1736603-1.261322,0.2331085-1.8904419c2.638443,0.3766174,5.2672882,0.8676453,7.9109039,1.195282
							c0.8265228,0.1094666,1.9150543,0.009552,2.1198883-0.8225708c-0.4536896-0.8695068-1.471756-1.1961365-2.3974152-1.4058838
							c-2.4854431-0.5801086-5.0073547-0.9712524-7.533844-1.158905c0.0044556-0.7806091-0.0374451-1.5505981-0.1495361-2.3167419
							c3.7353973-0.0000305,7.4625092,0.4230652,11.1174011,1.2402954c1.787796,0.3985596,3.8633118,1.2041626,4.2769623,3.0594177
							C182.9017487,264.0240479,181.3088379,265.769043,179.5651398,266.1809082z" style="fill:#0e7073"/>
            </g>
            <g>
              <path d="M180.0921783,281.4195557c-0.4136505-1.8552551-2.4891663-2.6608582-4.276947-3.0594177
							c-7.217392-1.6137695-14.545578-1.6175842-21.3636169-0.2600098
							c-1.0595856,0.2039795-3.1478119,0.6021423-3.6621857,1.7762756c-0.5009918,1.132782,0.4351044,2.5369263,1.4450531,3.0021973
							c2.0123138,0.9428101,4.1295776-0.2906494,12.2802277,0.6405029
							c7.5818939,0.8604431,9.7884979,2.5591431,12.6365204,1.8729248
							C178.894928,284.9801331,180.4878387,283.2351379,180.0921783,281.4195557z M172.6587219,282.8239441
							c-5.1664734-0.6402893-10.2051697-1.8890991-15.2690735-1.7134094
							c-0.7644348,0.0252991-2.2117004,0.4292297-2.5853271-0.550293c-0.4370422-1.1386414,0.953537-1.0029602,1.6611633-1.0658264
							c5.2807465-0.4906921,10.6644897-0.1245422,15.9157104,1.1010742c0.9256592,0.2097473,1.9437256,0.536377,2.3974152,1.4058838
							C174.5737762,282.8334961,173.4852448,282.9334106,172.6587219,282.8239441z" style="fill:#017afa"/>
              <path d="M177.1512299,285.3920288c-2.8415222,0.6846619-5.0041656-1.0067444-12.6365204-1.8729248
							c0.0908356-0.6308594,0.1736603-1.261322,0.2331085-1.8904419c2.6384583,0.3766479,5.2672882,0.8676453,7.9109039,1.195282
							c0.8265228,0.1094666,1.9150543,0.009552,2.1198883-0.8225708c-0.4536896-0.8695068-1.471756-1.1961365-2.3974152-1.4058838
							c-2.4854431-0.5801086-5.0073547-0.9712524-7.5338287-1.158905c0.0044403-0.7806091-0.0374451-1.5505981-0.1495361-2.3167419
							c3.7353821-0.0000305,7.4624939,0.4230652,11.1174011,1.2402954c1.7877808,0.3985596,3.8632965,1.2041626,4.276947,3.0594177
							C180.4878387,283.2351379,178.894928,284.9801331,177.1512299,285.3920288z" style="fill:#0e7073"/>
            </g>
            <g>
              <path d="M177.6782837,300.6306458c-0.4136658-1.8552551-2.4891815-2.6608582-4.2769623-3.0594177
							c-3.654892-0.8172302-7.382019-1.2403259-11.1174011-1.2402954
							c-3.4396515-0.0241089-6.8756866,0.3091736-10.2462158,0.9802856
							c-1.0595856,0.2039795-3.1478119,0.6021729-3.6621857,1.7763062
							c-0.5009918,1.1327515,0.4351044,2.5369263,1.4450684,3.0021667
							c2.0122986,0.9428101,4.1295624-0.2906494,12.2802277,0.6405029c2.4691315,0.2802124,4.9234924,0.7237854,7.3478699,1.331604
							c1.7427521,0.4335022,3.5453949,0.9613342,5.2886505,0.5413208
							C176.4810181,304.1912231,178.0739441,302.446228,177.6782837,300.6306458z M170.244812,302.0350342
							c-2.6436005-0.3276367-5.2724457-0.818634-7.9109039-1.195282c-2.4339142-0.3552856-4.8856812-0.6039124-7.3581696-0.5181274
							c-0.7644348,0.0253296-2.2117004,0.4292297-2.5853271-0.550293c-0.4370422-1.1386414,0.953537-1.0029602,1.6611633-1.0658264
							c2.5347443-0.2355347,5.0878754-0.2768555,7.6286316-0.1143799c0.2511444,0.0188293,0.5018463,0.0296021,0.7532501,0.0565796
							c2.526474,0.1876221,5.0483856,0.5787964,7.5338287,1.1588745c0.9256592,0.2097473,1.9437256,0.536377,2.3974152,1.4058838
							C172.1598663,302.0445862,171.0713348,302.1445007,170.244812,302.0350342z" style="fill:#017afa"/>
              <path d="M174.7373352,304.6031189c-1.7432556,0.4200134-3.5458984-0.1078186-5.2886505-0.5413208
							c-2.4243774-0.6078186-4.8787384-1.0513916-7.3478699-1.331604c0.0908203-0.6308594,0.1736603-1.261322,0.2330933-1.8904419
							c2.6384583,0.3766479,5.2673035,0.8676453,7.9109039,1.195282c0.8265228,0.1094666,1.9150543,0.009552,2.1198883-0.8225708
							c-0.4536896-0.8695068-1.471756-1.1961365-2.3974152-1.4058838c-2.4854431-0.5800781-5.0073547-0.9712524-7.5338287-1.1588745
							c0.0044556-0.7806396-0.0374451-1.5505981-0.1495361-2.3167725c3.7353821-0.0000305,7.4625092,0.4230652,11.1174011,1.2402954
							c1.7877808,0.3985596,3.8632965,1.2041626,4.2769623,3.0594177
							C178.0739441,302.446228,176.4810181,304.1912231,174.7373352,304.6031189z" style="fill:#0e7073"/>
            </g>
            <g>
              <path d="M175.2643738,319.8417358c-0.4136658-1.8552246-2.4891663-2.6608582-4.2769623-3.0594177
							c-3.654892-0.8171997-7.382019-1.2403259-11.1174011-1.2402649
							c-3.4396515-0.0241394-6.8756866,0.3091431-10.2462006,0.9802856
							c-1.0596008,0.203949-3.1478271,0.6021423-3.6622009,1.7762756c-0.5009918,1.1327515,0.4351044,2.5369263,1.4450684,3.0021667
							c2.0122986,0.9428406,4.1295624-0.2906494,12.2802277,0.6405334
							c7.5818939,0.8604431,9.7884979,2.5591125,12.6365204,1.8728943
							C174.0671082,323.4023438,175.6600342,321.6573486,175.2643738,319.8417358z M167.8309021,321.2461243
							c-2.6436005-0.3276062-5.2724457-0.818634-7.9109039-1.1952515c-2.4339142-0.3553162-4.8856812-0.6039429-7.3581696-0.518158
							c-0.7644348,0.0253296-2.2116852,0.4292603-2.5853271-0.550293c-0.4370422-1.1386414,0.953537-1.0029602,1.6611786-1.0658264
							c2.534729-0.2355347,5.0878601-0.2768555,7.6286163-0.1143494c0.2511444,0.0188293,0.5018616,0.0295715,0.7532501,0.0565491
							c2.526474,0.1876221,5.0483856,0.5787964,7.533844,1.1588745c0.9256592,0.2097473,1.9437103,0.536377,2.3973999,1.4059143
							C169.7459564,321.2556763,168.6574249,321.3555908,167.8309021,321.2461243z" style="fill:#017afa"/>
              <path d="M172.3234253,323.814209c-2.8415222,0.6846619-5.0041809-1.0067444-12.6365204-1.8728943
							c0.0908203-0.6308899,0.1736603-1.261322,0.2330933-1.8904419c2.6384583,0.3766174,5.2673035,0.8676453,7.9109039,1.1952515
							c0.8265228,0.1094666,1.9150543,0.009552,2.1198883-0.8225403c-0.4536896-0.8695374-1.4717407-1.196167-2.3973999-1.4059143
							c-2.4854584-0.5800781-5.00737-0.9712524-7.533844-1.1588745c0.0044556-0.7806396-0.0374451-1.5505981-0.1495361-2.3167419
							c3.7353821-0.000061,7.4625092,0.4230652,11.1174011,1.2402649c1.787796,0.3985596,3.8632965,1.2041931,4.2769623,3.0594177
							C175.6600342,321.6573486,174.0671082,323.4023438,172.3234253,323.814209z" style="fill:#0e7073"/>
            </g>
            <g>
              <path d="M172.8504639,339.0528259c-0.4136505-1.8552246-2.4891663-2.6608582-4.2769623-3.0594177
							c-7.2173767-1.6137695-14.545578-1.6175537-21.3636017-0.2599792
							c-1.0595856,0.2039795-3.1478271,0.6021423-3.6622009,1.7762756c-0.5009766,1.132782,0.4351044,2.5369263,1.4450684,3.0021667
							c2.0122986,0.9428406,4.1295624-0.2906189,12.2802277,0.6405334
							c7.5818939,0.8604431,9.7884979,2.5591125,12.6365204,1.8728943
							C171.6531982,342.6134338,173.2461243,340.8684387,172.8504639,339.0528259z M165.4169922,340.4572144
							c-5.1664734-0.6402893-10.2051544-1.8890991-15.2690735-1.7134094
							c-0.7644348,0.0253296-2.2116852,0.4292603-2.5853271-0.550293c-0.4370422-1.1386414,0.953537-1.0029602,1.6611786-1.0658264
							c5.2807312-0.4906616,10.6644897-0.1245117,15.9157104,1.1010742
							c0.9256592,0.2097778,1.9437256,0.5364075,2.3974152,1.4059143
							C167.3320465,340.4667969,166.2435303,340.5667114,165.4169922,340.4572144z" style="fill:#017afa"/>
              <path d="M169.9095154,343.0252991c-2.8415222,0.6846619-5.0041809-1.0067444-12.6365204-1.8728943
							c0.0908203-0.6308899,0.1736603-1.261322,0.2330933-1.8904419c2.6384583,0.3766174,5.2673035,0.8676453,7.9109039,1.1952515
							c0.8265381,0.1094971,1.9150543,0.0095825,2.1199036-0.8225403c-0.4536896-0.8695068-1.471756-1.1961365-2.3974152-1.4059143
							c-2.4854584-0.5800781-5.0073547-0.9712524-7.533844-1.1588745c0.0044556-0.7806396-0.0374451-1.5505981-0.1495361-2.3167419
							c3.7353821-0.000061,7.4625092,0.4230652,11.1174011,1.2402649c1.787796,0.3985596,3.8633118,1.2041931,4.2769623,3.0594177
							C173.2461243,340.8684387,171.6531982,342.6134338,169.9095154,343.0252991z" style="fill:#0e7073"/>
            </g>
            <g>
              <path d="M170.436554,358.2639465c-0.4136505-1.8552551-2.4891663-2.6608887-4.2769623-3.0594482
							c-7.2173767-1.613739-14.5455627-1.6175537-21.3636017-0.2599792
							c-1.0595856,0.2039795-3.1478119,0.6021423-3.6622009,1.7762756c-0.5009766,1.132782,0.4351044,2.5369263,1.4450684,3.0021667
							c2.0122986,0.9428406,4.1295776-0.2906189,12.2802277,0.6405334
							c7.5818939,0.8604431,9.7884979,2.5591431,12.6365204,1.8728943
							C169.2393036,361.8245239,170.8322144,360.0795288,170.436554,358.2639465z M163.0030975,359.668335
							c-5.1664734-0.6402893-10.2051697-1.8890991-15.2690887-1.7134399
							c-0.7644196,0.0253296-2.2116852,0.4292603-2.5853119-0.550293c-0.4370575-1.1386414,0.9535217-1.0029297,1.6611633-1.0657959
							c5.5255432-0.5134583,10.9144745-0.0661926,15.9157104,1.1010437
							c0.9256592,0.2097778,1.9437256,0.5364075,2.3974152,1.4059143
							C164.9181366,359.677887,163.8296204,359.7778015,163.0030975,359.668335z" style="fill:#017afa"/>
              <path d="M167.4956055,362.2363892c-2.8415222,0.6846619-5.0041809-1.0067139-12.6365204-1.8728943
							c0.0908203-0.6308899,0.1736603-1.261322,0.2331085-1.8904419c2.638443,0.3766174,5.2672882,0.8676453,7.9109039,1.195282
							c0.8265228,0.1094666,1.9150391,0.009552,2.1198883-0.8225708c-0.4536896-0.8695068-1.471756-1.1961365-2.3974152-1.4059143
							c-2.4854431-0.5800781-5.0073547-0.9712219-7.533844-1.1588745c0.0044556-0.7806396-0.0374451-1.5505981-0.1495361-2.3167419
							c3.7353821-0.000061,7.4625092,0.4230652,11.1174011,1.2402649c1.787796,0.3985596,3.8633118,1.2041931,4.2769623,3.0594482
							C170.8322144,360.0795288,169.2393036,361.8245239,167.4956055,362.2363892z" style="fill:#0e7073"/>
            </g>
            <g>
              <path d="M168.022644,377.4750366c-0.4136505-1.8552551-2.4891663-2.6608582-4.276947-3.0594177
							c-7.217392-1.6137695-14.545578-1.6175842-21.3636169-0.2600098
							c-1.0595856,0.2039795-3.1478119,0.6021423-3.6621857,1.7762756c-0.5009918,1.132782,0.4351044,2.5369263,1.4450531,3.0021667
							c2.0123138,0.9428406,4.1295776-0.2906189,12.2802277,0.6405334
							c7.5818939,0.8604431,9.7884979,2.5591431,12.6365204,1.8728943
							C166.8253937,381.035614,168.4183044,379.2906189,168.022644,377.4750366z M160.5891876,378.879425
							c-5.1664734-0.6402893-10.2051697-1.8890991-15.2690735-1.7134399
							c-0.7644348,0.0253296-2.2117004,0.4292603-2.5853271-0.550293c-0.4370422-1.1386108,0.9535217-1.0029297,1.6611633-1.0657959
							c5.2807312-0.4906921,10.6644897-0.1245422,15.9157104,1.1010742c0.9256592,0.2097473,1.9437256,0.536377,2.3974152,1.4058838
							C162.5042419,378.8889771,161.4157104,378.9888916,160.5891876,378.879425z" style="fill:#017afa"/>
              <path d="M165.0816956,381.4474792c-2.8415222,0.6846619-5.0041656-1.0067139-12.6365204-1.8728943
							c0.0908356-0.6308899,0.1736603-1.261322,0.2331085-1.8904419c2.638443,0.3766174,5.2672882,0.8676453,7.9109039,1.195282
							c0.8265228,0.1094666,1.9150543,0.009552,2.1198883-0.8225708c-0.4536896-0.8695068-1.471756-1.1961365-2.3974152-1.4058838
							c-2.4854431-0.5801086-5.0073547-0.9712524-7.5338287-1.158905c0.0044403-0.7806091-0.0374451-1.5505981-0.1495514-2.3167419
							c3.7353973-0.000061,7.4625092,0.4230652,11.1174164,1.2402954c1.7877808,0.3985596,3.8632965,1.2041626,4.276947,3.0594177
							C168.4183044,379.2906189,166.8253937,381.035614,165.0816956,381.4474792z" style="fill:#0e7073"/>
            </g>
            <g>
              <path d="M165.6087341,396.6861267c-0.4136505-1.8552551-2.4891663-2.6608582-4.276947-3.0594177
							c-7.217392-1.6137695-14.545578-1.6175842-21.3636169-0.2600098
							c-1.0595856,0.2039795-3.1478119,0.6021423-3.6621857,1.7762756c-0.5009918,1.132782,0.4351044,2.5369263,1.4450684,3.0021973
							c2.0122986,0.9428101,4.1295624-0.2906494,12.2802277,0.6405029
							c7.5818787,0.8604431,9.7884979,2.5591431,12.6365204,1.8728943
							C164.4114838,400.2467041,166.0044098,398.501709,165.6087341,396.6861267z M158.1752777,398.0905151
							c-5.1664734-0.6402893-10.2051697-1.8890991-15.2690735-1.7134399
							c-0.7644348,0.0253296-2.2117004,0.4292603-2.5853271-0.550293c-0.4370422-1.1386108,0.953537-1.0029297,1.6611633-1.0657959
							c5.5255585-0.5134277,10.9144745-0.0661926,15.9157104,1.1010742c0.9256592,0.2097473,1.9437256,0.536377,2.3974152,1.4058838
							C160.090332,398.1000671,159.0018005,398.1999817,158.1752777,398.0905151z" style="fill:#017afa"/>
              <path d="M162.6678009,400.6585693c-2.8415222,0.6846924-5.0041809-1.0067139-12.6365204-1.8728943
							c0.0908203-0.6308594,0.1736603-1.261322,0.2330933-1.8904419c2.6384583,0.3766479,5.2672882,0.8676453,7.9109039,1.195282
							c0.8265228,0.1094666,1.9150543,0.009552,2.1198883-0.8225708c-0.4536896-0.8695068-1.471756-1.1961365-2.3974152-1.4058838
							c-2.4854431-0.5801086-5.0073547-0.9712524-7.5338287-1.158905c0.0044556-0.7806091-0.0374451-1.5505981-0.1495361-2.3167419
							c3.7353821-0.0000305,7.4625092,0.4230652,11.1174011,1.2402954c1.7877808,0.3985596,3.8632965,1.2041626,4.276947,3.0594177
							C166.0044098,398.501709,164.4114838,400.2467041,162.6678009,400.6585693z" style="fill:#0e7073"/>
            </g>
            <g>
              <path d="M163.1948395,415.8972168c-0.4136658-1.8552551-2.4891663-2.6608582-4.2769623-3.0594177
							c-7.217392-1.6137695-14.545578-1.6175842-21.3636169-0.2600098
							c-1.0595856,0.2039795-3.1478119,0.6021729-3.6621857,1.7763062
							c-0.5009918,1.1327515,0.4351044,2.5369263,1.4450684,3.0021667c1.0104065,0.4733887,2.1626434,0.3944397,3.2694244,0.3423462
							c5.679245-0.2630005,11.1719666,0.3293762,16.3586731,1.6297607c1.7427521,0.4335022,3.5454102,0.9613342,5.2886505,0.5413208
							C161.9975739,419.4577942,163.5904999,417.7127991,163.1948395,415.8972168z M155.7613678,417.3016052
							c-5.1664734-0.6402893-10.2051544-1.8890991-15.2690735-1.7134094
							c-0.7644348,0.0252991-2.2116852,0.4292297-2.5853271-0.550293c-0.4370422-1.1386414,0.953537-1.0029602,1.6611786-1.0658264
							c5.2807312-0.4906921,10.6644897-0.1245422,15.9157104,1.1010742c0.9256592,0.2097473,1.9437103,0.536377,2.3973999,1.4058838
							C157.6764221,417.3111572,156.5878906,417.4110718,155.7613678,417.3016052z" style="fill:#017afa"/>
              <path d="M160.253891,419.8696899c-2.8415222,0.6846619-5.0041809-1.0067444-12.6365204-1.8729248
							c0.0908203-0.6308594,0.1736603-1.261322,0.2330933-1.8904419c2.6384583,0.3766479,5.2673035,0.8676453,7.9109039,1.195282
							c0.8265228,0.1094666,1.9150543,0.009552,2.1198883-0.8225708c-0.4536896-0.8695068-1.4717407-1.1961365-2.3973999-1.4058838
							c-2.4854584-0.5800781-5.00737-0.9712524-7.533844-1.1588745c0.0044556-0.7806396-0.0374451-1.5505981-0.1495361-2.3167725
							c3.7353821-0.0000305,7.4625092,0.4230652,11.1174011,1.2402954c1.787796,0.3985596,3.8632965,1.2041626,4.2769623,3.0594177
							C163.5904999,417.7127991,161.9975739,419.4577942,160.253891,419.8696899z" style="fill:#0e7073"/>
            </g>
            <g>
              <path d="M160.7809296,435.1083069c-0.4136505-1.8552246-2.4891663-2.6608582-4.2769623-3.0594177
							c-7.2173767-1.6137695-14.545578-1.6175842-21.3636017-0.2599792
							c-1.0596008,0.203949-3.1478271,0.6021423-3.6622009,1.7762756c-0.5009766,1.1327515,0.4351044,2.5369263,1.4450684,3.0021667
							c2.0122986,0.9428406,4.1295624-0.2906494,12.2802277,0.6405029
							c7.5818939,0.8604736,9.7884979,2.5591431,12.6365204,1.8729248
							C159.5836639,438.6689148,161.17659,436.9239197,160.7809296,435.1083069z M153.3474579,436.5126953
							c-5.1664734-0.6402893-10.2051544-1.8890991-15.2690735-1.7134094
							c-0.7644348,0.0253296-2.2116852,0.4292603-2.5853271-0.550293c-0.4370422-1.1386414,0.953537-1.0029602,1.6611786-1.0658264
							c5.2807312-0.4906616,10.6644897-0.1245422,15.9157104,1.1010742c0.9256592,0.2097473,1.9437103,0.536377,2.3973999,1.4059143
							C155.2625122,436.5222473,154.173996,436.6221619,153.3474579,436.5126953z" style="fill:#017afa"/>
              <path d="M157.8399811,439.08078c-2.8415222,0.6846619-5.0041809-1.0067444-12.6365204-1.8729248
							c0.0908203-0.6308594,0.1736603-1.2612915,0.2330933-1.8904114c2.6384583,0.3766174,5.2673035,0.8676453,7.9109039,1.1952515
							c0.8265381,0.1094666,1.9150543,0.009552,2.1198883-0.8225403c-0.4536896-0.8695374-1.4717407-1.196167-2.3973999-1.4059143
							c-2.4854584-0.5800781-5.0073547-0.9712524-7.533844-1.1588745c0.0044556-0.7806396-0.0374451-1.5505981-0.1495361-2.3167419
							c3.7353821-0.000061,7.4625092,0.4230652,11.1174011,1.2402649c1.787796,0.3985596,3.8633118,1.2041931,4.2769623,3.0594177
							C161.17659,436.9239197,159.5836639,438.6689148,157.8399811,439.08078z" style="fill:#0e7073"/>
            </g>
            <g>
              <path d="M158.3670197,454.319397c-0.4136505-1.8552246-2.4891663-2.6608582-4.2769623-3.0594177
							c-7.2173767-1.6137695-14.5455627-1.6175537-21.3636017-0.2599792
							c-1.0595856,0.2039795-3.1478119,0.6021423-3.6622009,1.7762756c-0.5009766,1.132782,0.4351044,2.5369263,1.4450684,3.0021667
							c1.0104065,0.4734192,2.1626587,0.3944397,3.2694244,0.3423462c5.679245-0.26297,11.1719666,0.3294067,16.3586731,1.6297607
							c1.7427673,0.4335022,3.5454102,0.9613647,5.2886505,0.5413208
							C157.1697693,457.8800049,158.7626801,456.1350098,158.3670197,454.319397z M150.9335632,455.7237854
							c-5.1664734-0.6402893-10.2051697-1.8890991-15.2690887-1.7134094
							c-0.7644348,0.0253296-2.2116852,0.4292603-2.5853119-0.550293c-0.4370575-1.1386414,0.9535217-1.0029602,1.6611633-1.0658264
							c5.5255432-0.5134277,10.9144745-0.0661926,15.9157104,1.1010742
							c0.9256592,0.2097473,1.9437256,0.5364075,2.3974152,1.4059143
							C152.8486023,455.7333374,151.7600861,455.8332825,150.9335632,455.7237854z" style="fill:#017afa"/>
              <path d="M155.4260712,458.2918701c-2.8415222,0.6846619-5.0041809-1.0067444-12.6365204-1.8728943
							c0.0908203-0.6308899,0.1736603-1.261322,0.2331085-1.8904419c2.638443,0.3766174,5.2672882,0.8676453,7.9109039,1.1952515
							c0.8265228,0.1094971,1.9150391,0.009552,2.1198883-0.8225403c-0.4536896-0.8695068-1.471756-1.196167-2.3974152-1.4059143
							c-2.4854431-0.5800781-5.0073547-0.9712524-7.533844-1.1588745c0.0044556-0.7806396-0.0374451-1.5505981-0.1495361-2.3167419
							c3.7353821-0.000061,7.4625092,0.4230652,11.1174011,1.2402649c1.787796,0.3985596,3.8633118,1.2041931,4.2769623,3.0594177
							C158.7626801,456.1350098,157.1697693,457.8800049,155.4260712,458.2918701z" style="fill:#0e7073"/>
            </g>
          </g>
          <g>
            <path d="M514.3625488,272.2857361c-17.0172729,73.0375366-17.6199341,76.0497742-18.9692078,80.4024353
						c-10.1283264,33.2798767-38.9682617,58.8035889-72.6694946,58.9050293l-1.545166-2.20047
						c0,0-17.3383179-53.6691895,24.7745972-97.5924377C464.121582,292.7583008,489.1642761,280.3296509,514.3625488,272.2857361z" style="fill:#117075"/>
            <path d="M507.7979431,276.6682434c0,0-47.5169373,32.8241882-71.9006042,124.7319031
						C435.8973389,401.4001465,467.1584778,313.868988,507.7979431,276.6682434z" style="fill:#25e691"/>
            <path d="M503.7347107,318.0036926c-0.2887878,1.2329102-0.5773926,2.4735413-0.8660278,3.7220764
						c-11.9628296,2.3908386-24.0507202,4.1582031-36.3855896,6.4921265
						c-0.8098755-9.5743713-1.4127502-17.2262268-3.1446533-31.3603821c0.7022095-0.4993896,1.412384-0.9988098,2.1302185-1.490387
						c0.7883911,10.3926697,2.4048767,20.7008972,4.5492249,30.8141174
						C481.5228882,322.2439575,492.2702637,320.7879333,503.7347107,318.0036926z" style="fill:#25e691"/>
            <path d="M496.2593689,349.6449585c-0.2651978,1.0221863-0.5539856,2.0365906-0.8660278,3.0432129
						c-13.7646484,3.1055908-30.5435791,6.2345886-43.9256897,8.7705688
						c-0.015625-0.1872559,0.3787842-0.653717,1.3835754-0.5695801
						c-1.1805725-12.3359375-3.6946106-27.8687439-6.8979492-49.0888672
						c0.6477051-0.6788635,1.3108521-1.3499146,1.9898071-2.0287781
						c1.6850891,13.6365662,5.9169922,37.3877258,8.0555725,47.5672913
						C455.9986572,357.3388062,483.1347961,353.4450378,496.2593689,349.6449585z" style="fill:#25e691"/>
          </g>
          <g>
            <path d="M556,378.2844238c0,0-9.8692017,18.7409973-21.942688,41.492157
						c-0.5938721,1.1183777-1.1895142,2.2443237-1.7871704,3.3778381
						c-12.6442261,23.8109741-13.3474731,25.1792603-15.1291504,28.0296326
						c-18.2856445,29.5933838-52.6841125,46.912384-85.2954102,38.4102783l-0.9324951-2.5219116
						C431.005127,486.9721985,425.3450317,384.9478149,556,378.2844238z" style="fill:#117075"/>
            <path d="M548.5343628,380.8465881c0,0-54.3200378,19.6116028-101.3502808,102.2539063
						C447.184082,483.1004944,499.7471924,406.4448853,548.5343628,380.8465881z" style="fill:#25e691"/>
            <path d="M534.057312,419.7765808c-0.5938721,1.1183777-1.1895142,2.2443237-1.7871704,3.3778381
						c-12.1768799-0.7410889-24.3155823-2.1169434-36.8376465-3.0080566
						c1.6602173-9.4640198,3.0299988-17.0163879,4.9623108-31.1245117c0.8063965-0.3036804,1.6205139-0.6053162,2.4400024-0.8974609
						c-1.889801,10.2497864-2.9573975,20.6292419-3.4648132,30.954834
						C511.4988403,418.208252,522.2619019,419.5430603,534.057312,419.7765808z" style="fill:#25e691"/>
            <path d="M518.7549438,448.462616c-0.5172729,0.9206848-1.0553589,1.8277893-1.6139526,2.7214355
						c-14.1014099-0.5098267-31.123291-1.7662048-44.7095032-2.7291565
						c0.0326843-0.1850586,0.5330505-0.5354309,1.4831238-0.1976624c2.0065308-12.2287598,3.5395203-27.888855,5.8573914-49.223877
						c0.7994995-0.4910889,1.6119385-0.9707031,2.4416504-1.4538269
						c-1.8506165,13.6151123-3.8198547,37.6598206-4.349823,48.0480652
						C477.8638306,445.627594,505.0952148,448.7876282,518.7549438,448.462616z" style="fill:#25e691"/>
          </g>
          <g>
            <ellipse cx="306.518" cy="504.376" rx="75.063" ry="16.243" style="fill:#262931" transform="rotate(-.809 306.518 504.376)"/>
            <ellipse cx="408.481" cy="502.937" rx="75.063" ry="16.243" style="fill:#262931" transform="rotate(-.809 408.481 502.937)"/>
            <path d="M456.4893188,346.2894897c0,0-9.9218445-1.319397-11.321228-7.1168823
						c-1.3994141-5.7974548-14.7782593-37.9833984-91.7522583-30.7865295c0,0-51.7850342,7.6854858-55.9832153,33.8296509
						l-10.5437317,84.2351074l-1.0551147,71.7480164l153.8080444,3.8687744L456.4893188,346.2894897z" style="fill:#0179fb"/>
            <path d="M420.1861877,324.4092102c0,0.0858765-1.2641907,2.5359802-3.5113831,6.2346497
						c-7.2568359,11.9698181-25.1647644,37.5793457-43.5174866,36.8692932
						c-14.7788696-0.5696411-30.1273804-16.8233643-39.7251282-29.1989441
						c-5.9770508-7.7015991-9.7225342-13.9049988-9.7225342-13.9049988
						c34.0210571,1.1314392,42.9400635-7.5845337,42.9400635-7.5845337
						C415.535614,311.869751,419.9989014,324.3936462,420.1861877,324.4092102z" style="fill:#0043a3"/>
            <path d="M416.6757813,330.6417236c-8.9511108,14.7694092-26.2372437,37.5416565-43.5175171,36.8692932
						c-11.0490112-0.4291687-22.4180603-9.6211548-31.4616394-19.4061279
						c-3.0511169-3.3006897-5.8446655-6.6715698-8.2634888-9.7927856
						c20.6084595-7.5169373,42.1792908-11.4489136,64.2111206-11.6655273
						C403.6691589,326.5877075,411.9395752,326.8846436,416.6757813,330.6417236z" style="fill:#232a30"/>
            <g>
              <path d="M315.1075439,292.3041382c0,0-18.7471008-31.0830688-5.657074-53.6320953
							s58.3781128-32.7236023,73.5449524-22.8240356c15.1668396,9.8995819,27.2663269,18.0545349,20.3916016,62.5124664
							L315.1075439,292.3041382z" style="fill:#262932"/>
              <path d="M405.8062134,346.2243347c-7.8950806,9.8200989-20.0446777,21.7805786-32.6479492,21.2866821
							c-11.0490112-0.4291687-22.4180603-9.6211548-31.4616394-19.4061279
							c4.1109619-17.0110168-4.5895691,18.9715881,5.2201538-21.5987549
							c0.1706848-0.0694275,35.9407959-14.6203918,36.0812073-14.6774902
							C402.7370911,341.5931396,391.5692444,324.7543335,405.8062134,346.2243347z" style="fill:#c32f23"/>
              <path d="M403.8242188,348.6120605c-8.5208435,10.042511-19.5153809,19.3359375-30.6659546,18.8989563
							c-11.0490112-0.4291687-22.4180603-9.6211548-31.4616394-19.4061279l0.5071106-2.1068115
							c9.5551147,5.1846008,17.1561279,13.9341736,27.7319946,16.7374878
							c5.8210144,1.5527954,12.5629272,0.8739319,17.0729065-3.1290283c-0.686554-2.192627-3.50354-2.6452332-5.7585449-3.0665588
							c-5.4464722-1.0300293-10.4559631-4.1980286-13.7177734-8.6769714
							c-1.5762329-2.1614685-2.8948975-4.7364502-5.3060913-5.8990784c-1.8726501-0.9051819-4.0497131-0.76474-6.1252747-0.8973694
							c-4.1903076-0.2653198-8.2712708-1.7556763-11.6967163-4.1668396
							c5.1404114-21.2642212,0.4590759-1.8989868,2.5125427-10.3935852l8.1541443-3.3162842
							c0.9675598,0.2418823,1.9273071,0.5071716,2.8636475,0.764679
							C373.1943054,328.152832,393.8960571,332.6314392,403.8242188,348.6120605z" style="fill:#ab2618"/>
              <path d="M323.9794312,313.1081238c13.7177124,21.473938,24.2908325,24.28302,47.255127,19.4919434
							c28.1455078-5.8678589,29.7607422-31.9924011,29.7607422-31.9924011
							c15.6918945,0.795929,16.2927246-11.6577148,12.203949-20.7560425
							c-3.4255371-7.6235657-14.4200134-4.4399109-14.4200134-4.4399109
							c-5.8756714-4.2838745-11.0881042-18.5868225-13.1636963-24.8760529
							c-0.6086426-1.857132-0.9441833-3.0197754-0.9441833-3.0197754
							c-19.3280945,13.4446259-40.7395935,18.1108246-64.6636658,12.2039337
							c0.2828979,9.1581421,0.260437,20.8100586-1.6464233,29.7607422
							c-18.0093994-3.1368103-13.546051,13.7099304-13.546051,13.7099304
							c5.6181641,16.0274048,19.1642151,9.0905151,19.1642151,9.0905151V313.1081238z" style="fill:#ef5d5f"/>
              <path d="M327.6743774,285.8376465c0.5022583-1.6234436,5.0641479-5.837738,11.2531128-7.2489014
							c0.8674316-0.1977844,1.7799377-0.3389893,2.6398926-0.1108704c1.7851868,0.4735413,2.4199524,2.3158875,0.945282,3.6963196
							c-0.7220459,0.6758728-0.7234192,0.585907-12.1091614,5.9572144
							c-0.3942261,0.1859741-0.8017578,0.3753662-1.2372742,0.3942261
							C327.9311218,288.579071,327.3703613,286.820343,327.6743774,285.8376465z" style="fill:#272933"/>
              <circle cx="338.974" cy="295.813" r="3.509" style="fill:#272933"/>
              <path d="M387.9936829,277.0002441c-0.8850098-1.4507141-6.341095-4.4176331-12.6871338-4.2680054
							c-0.8894348,0.0209656-1.8087158,0.1078491-2.5864563,0.539856c-1.614563,0.8968506-1.7781372,2.838623-0.0099792,3.8152771
							c0.8657227,0.4781799,0.8450012,0.390625,13.2002563,2.8058472c0.4277954,0.0836182,0.8693542,0.1672974,1.2961731,0.0787659
							C388.4170532,279.7209167,388.5293884,277.8783875,387.9936829,277.0002441z" style="fill:#272933"/>
              <circle cx="379.486" cy="289.442" r="3.509" style="fill:#272933"/>
              <path d="M356.62854,306.655426c-0.3235168,1.8237915,0.4582214,3.1837463,2.449707,3.6396179
							c1.5629883,0.3577881,3.1938477,0.0726318,4.7674561-0.2352295c1.9782715-0.3870239,3.9560547-0.8106689,5.8592224-1.4749756
							c2.9343567-1.0242004,3.2245483-2.8075867,1.6629028-4.6586609c-1.2918701-1.531311-3.1557922-2.5342712-4.2975159-4.180603
							c-2.2044067-3.1786499-1.1722717-7.6852417-2.469696-9.3613281c-1.1262817-1.4549561-2.0464783,1.0359802-2.3241577,1.8934326
							C359.5614014,300.6621399,356.9126282,305.053833,356.62854,306.655426z" style="fill:#c32f23"/>
              <path d="M410.2341003,289.4415283c0,4.0419617-7.0149231,9.4338684-8.9344177,7.9200745
							c-1.8009338-1.4110718-2.2397461-12.9814453-2.3409119-14.9818115
							C407.6199951,277.8384399,410.2341003,285.3995667,410.2341003,289.4415283z" style="fill:#ab2618"/>
              <path d="M404.7173157,288.54422c0.7568665,0.634613,0.9226685,2.0233459-0.3198547,3.3786621
							c-1.4673157,1.6203003-3.210907,1.1820068-4.7365112-0.3432922c-0.3588867-2.7701111-0.5461731-5.8600769-0.6398926-7.6625671
							c1.1161804,0.4403381,2.6371765,0.6505432,3.5582275-0.1170654c0.3432922-0.2809143,0.5696106-0.671051,0.8740234-0.9909973
							c0.3042297-0.3121033,0.7412415-0.5696106,1.1704712-0.4681702c0.4836731,0.1170654,0.7568665,0.6632385,0.749054,1.1548462
							c-0.015625,0.4993896-0.2575684,0.9597778-0.4838867,1.396759c-1.1700745,2.190918-1.2201843,2.2826233-1.2405701,2.4657288
							C403.5937195,287.9121704,404.2961121,288.1774292,404.7173157,288.54422z" style="fill:#951c10"/>
              <path d="M309.761322,303.8729553c0.9536743,3.9278564,9.0427246,7.5124207,10.5508728,5.5884705
							c1.4231873-1.803833-0.8991089-13.1808777-1.2600403-15.1111755
							C309.5639343,291.9806824,308.8076477,299.9451294,309.761322,303.8729553z" style="fill:#ab2618"/>
              <path d="M314.9106445,301.6993408c-0.3744812,0.5084229-0.3850098,1.225647-0.1390686,1.8082886
							c0.4371948,1.0365906,1.808136,1.9421692,2.787384,1.9891052c1.2370605,0.058136,2.3262939-0.9656372,2.9814453-2.040741
							c-0.3048096-2.7765808-0.8518982-5.8234863-1.1860962-7.5971985c-0.9807739,0.6912537-2.4092102,1.2543945-3.4853821,0.725769
							c-0.3998718-0.1919556-0.711853-0.5177002-1.0831604-0.7568054c-0.3692932-0.2314758-0.8547363-0.3786316-1.2478943-0.178772
							c-0.4423828,0.2278748-0.57901,0.8230896-0.4554138,1.2989502c0.1329956,0.4816284,0.4767456,0.8719482,0.7997742,1.2431641
							c1.6539612,1.8530273,1.7243042,1.9302979,1.7872925,2.1034241
							C315.8533936,300.8200378,315.233429,301.2435303,314.9106445,301.6993408z" style="fill:#951c10"/>
              <path d="M323.4801025,263.9646606c1.3965759,6.9759216-1.9663696,15.3095398-4.1824951,19.7884827
							c0.8662109-6.9837341,0.9831848-15.1924744,0.7101746-24.0333252
							c23.9240112,5.9068909,45.3354797,1.2406616,64.6636047-12.2039337c0,0,0.3354797,1.1626434,0.9441223,3.0197601
							C360.3025513,270.8703308,323.4801025,263.9646606,323.4801025,263.9646606z" style="fill:#c32f23"/>
            </g>
            <circle cx="353.7" cy="433.771" r="6.134" style="fill:#fefdff"/>
            <polyline points="351.909 428.967 351.909 368.81 355.781 368.81 355.185 433.771" style="fill:#fefdff"/>
            <circle cx="388.096" cy="432.488" r="6.134" style="fill:#fefdff"/>
            <polyline points="386.306 427.684 386.306 367.528 390.177 367.528 389.581 432.488" style="fill:#fefdff"/>
            <path d="M297.2516479,343.6615295c0,0,22.5703735,7.125885,49.252594,24.6859741
						s44.2423096,3.1927185,44.2423096,3.1927185s36.0323792-28.7740479,52.4522095-29.3244934
						c0,0-13.295166-5.1633911-41.0836182,13.9049988c-27.7884216,19.0683594-24.8254089,18.5308228-44.892395,12.454834
						C357.2227478,368.5755615,307.9770203,334.4831848,297.2516479,343.6615295z" style="fill:#26282f"/>
            <g>
              <path d="M433.5248108,399.2057495c0,0,1.5415344-38.8467407,23.431366-52.1039734
							c0,0,17.8818359,3.699707,21.8898315,46.2461243s0.7712097,74.155304-1.3100891,81.3197632
							c-2.0812988,7.1644897-24.2794495,8.7060242-24.2794495,8.7060242l-23.7396545-42.2381287" style="fill:#0179fb"/>
              <g>
                <path d="M429.956543,376.2504272c-2.8247986,8.0604858-23.8929749,8.8329773-31.8442078,8.8329773
								c-1.8726501,0-3.0196838-0.0390015-3.0196838-0.0390015c-0.2047729-6.1280823,0.5058899,15.1388855-0.9363098-28.0206604
								c-3.65448-0.7703552-7.9130554-1.4656067-11.9933472-3.4177246
								c-3.9559937-1.8883057-7.3972473-4.8457031-9.8551331-8.4662476
								c-1.2954102-1.9195862-2.3877563-4.0888367-4.299469-5.4075623
								c-3.4690857-2.3962708-7.8337708-1.0703735-17.7208252-4.8378296
								c-1.8102722-0.6888733-3.7981262-1.6193542-4.7831726-3.3007202
								c-1.0088196-1.6760864,0.4602661-4.0228577,2.3330994-4.6661987
								c-1.166687,0.3070679-2.6022034-0.7898254-2.4344482-2.9963684c0.155426-2.1854858,2.1063538-3.7220154,4.229187-3.7220154
								c-0.7679138-2.4293518-1.270874-3.1876526,0.2575684-4.1044006c1.9988708-1.1841736,4.400177-1.5867615,6.6948547-1.2875061
								c-0.7869263-0.6952515-0.6743469-2.4180908,0.3278503-2.6686401
								c33.188385-8.2253723,53.0697327,27.0155945,53.1697388,27.0999146L429.956543,376.2504272z" style="fill:#ef5d5f"/>
                <path d="M376.8547363,334.4992981c-7.4206848-6.5779419-29.0194092-7.5689392-29.0194092-7.5689392
								c-0.164032,0.0234375-0.3122253,0.039032-0.4526367,0.039032c-0.6489868-0.0256348-1.3425903-0.4639893-1.6932068-1.2173157
								c11.509491-2.083374,28.4654236,2.4189758,31.1652527,5.7898865
								C379.5545654,334.9206543,376.8547363,334.4992981,376.8547363,334.4992981z" style="fill:#c42f24"/>
                <path d="M378.2903748,327.9213562c-7.4206848-6.5857544-29.0194092-7.5689392-29.0194092-7.5689392
								l-0.1794434-0.1014404c0.1794434-0.023407,0.3588867-0.039032,0.5383606-0.039032
								c-0.1404114-0.4447632-0.2808228-0.8895569-0.4290161-1.3343201
								c11.368866-1.2640991,26.5457153,2.910553,29.0895081,6.0863953
								C380.9902039,328.3427124,378.2903748,327.9213562,378.2903748,327.9213562z" style="fill:#c42f24"/>
                <path d="M381.3258667,322.2641602c-6.2111816-5.5011292-22.3401794-7.0929871-27.4432068-7.4674988
								c0.8972778-0.1092529,1.8023682-0.0936279,2.6998291,0.0234375
								c-0.4682617-0.4136047-0.6242676-1.2017212-0.4448242-1.8181152
								c10.682312-0.1248779,22.9252014,3.487915,25.1882019,6.3126221
								C384.0256653,322.6855164,381.3258667,322.2641602,381.3258667,322.2641602z" style="fill:#c42f24"/>
                <path d="M393.701355,356.9329834c-3.9403687-0.7724915-7.9200134-1.5917969-11.5407104-3.3240967
								c-3.9559937-1.8883057-7.3972473-4.8456421-9.8551331-8.4662476
								c-1.2954102-1.9195557-2.3877563-4.0887756-4.299469-5.4075012
								c-3.4690552-2.3963318-7.8335571-1.0704041-17.7206421-4.8378906
								c-2.8450012-1.0849304-6.109314-2.9687805-4.8146057-5.774231
								c5.4933777,3.2148132,11.6266174,5.3294678,17.9393311,6.1722107
								c4.9329224,0.6691895,7.063385,0.6936951,11.1737976,5.657196
								C379.2129517,346.5098877,383.0440063,353.8572083,393.701355,356.9329834z" style="fill:#d54239"/>
                <path d="M398.1101685,385.0863342c-1.8728333,0-3.0198669-0.0390015-3.0198669-0.0390015l-0.9363098-27.9816895
								c0.7099915,0.1950684,1.4356384,0.3589478,2.161438,0.4915771
								C395.6640015,367.7145691,397.3001404,377.9040833,398.1101685,385.0863342z" style="fill:#d54239"/>
              </g>
              <path d="M395.0866089,385.0488586c0,0,20.5308533,2.2812195,34.869873-8.7989197
							c0,0,44.3205566,78.5386353,47.5794373,98.4177246c0,0,1.9553223,22.4861755-15.9684448,32.2627869
							c-17.9237671,9.7765808-43.9946899,0.9776611-51.4900818-27.7003784
							C402.5820007,450.552063,395.0866089,385.0488586,395.0866089,385.0488586z" style="fill:#0179fb"/>
              <g>
                <path d="M475.1300049,468.57901c-5.0620117-17.25-30.7685547-64.5888672-35.0693359-72.4521484
								c-13.4140625,20.1972656-41.8027344,14.0693359-42.0932617,14.0029297
								c-0.4038086-0.0908203-0.6577148-0.4921875-0.5664063-0.8964844
								c0.0908203-0.4042969,0.4956055-0.6591797,0.8959961-0.5664063
								c0.284668,0.0615234,28.6333008,6.1640625,41.1708984-14.4023438
								c0.3445435-0.5638123,1.0545349-0.413147,1.2973633,0.0283203
								c0.3017578,0.5478516,30.2578125,54.9628906,35.8041992,73.8642578
								c0.1166992,0.3974609-0.1113281,0.8134766-0.5087891,0.9306641
								C475.6644897,469.2033691,475.2473755,468.978241,475.1300049,468.57901z" style="fill:#002197"/>
              </g>
              <g>
                <path d="M409.3887939,479.5282288c-6.1728516-14.2890625-14.6884766-91.1328125-15.0478516-94.3974609
								c-0.0454102-0.4121094,0.2519531-0.7822266,0.6635742-0.8271484
								c0.4082031-0.0615234,0.7817383,0.2509766,0.8276367,0.6630859
								c0.0878906,0.796875,8.8496094,79.8828125,14.9335938,93.9658203
								c0.1640625,0.3808594-0.0107422,0.8222656-0.3911133,0.9863281
								C410.0022278,480.0806274,409.5558472,479.9142456,409.3887939,479.5282288z" style="fill:#002197"/>
              </g>
              <g>
                <path d="M439.4517822,395.0174866l-10.1518555-18.4052734
								c-0.2001953-0.3623047-0.0683594-0.8193359,0.2944336-1.0185547c0.3618164-0.2011719,0.8188477-0.0693359,1.019043,0.2939453
								l10.1518555,18.4052734c0.2001953,0.3623047,0.0683594,0.8193359-0.2944336,1.0185547
								C440.1070251,395.5126953,439.6509094,395.3788147,439.4517822,395.0174866z" style="fill:#002197"/>
              </g>
              <g>
                <path d="M435.1187744,386.5711975c-0.4086914-0.0683594-0.6850586-0.4541016-0.6171875-0.8623047
								c0.1884766-1.1416016,4.7929688-28.0566406,19.4116211-37.4414063
								c0.347168-0.2246094,0.8115234-0.1230469,1.0366211,0.2255859c0.2236328,0.3486328,0.1225586,0.8125-0.2260742,1.0361328
								c-14.0561523,9.0234375-18.6972656,36.1513672-18.7426758,36.4238281
								C435.9134827,386.3629456,435.5260925,386.6383057,435.1187744,386.5711975z" style="fill:#002197"/>
              </g>
            </g>
            <g>
              <path d="M447.3797913,504.2377625c-0.2106934,1.5606079-1.9039001,2.8480835-3.3475342,2.5125427
							c1.4046021,0.780304,2.0132446,2.6998901,2.1927185,4.3853149c0.0935364,0.8739014,0.1169739,1.8337402-0.3901672,2.5515747
							c-0.9831848,1.404541-3.1212158,1.0222168-4.7521057,0.4916382c3.0618591,1.8537598,0.4085999,8.7738647-9.1138916,6.0707397
							c-2.223938-0.6320801-4.3775635-1.5059814-6.40625-2.6062012c0.2886047,1.5996094-1.1472168,2.5983887-2.6843872,3.1445923
							c-2.2705994,0.8115234-4.8143921,0.0936279-6.9367981-1.0455933c-2.122406-1.1392822-4.0108643-2.6998291-6.1799316-3.7454224
							c-4.0889587-1.9819946-8.7940369-1.9975586-13.3276367-2.2941284
							c-9.4729919-0.6164551-18.8598633-2.5983887-27.7710266-5.8756714
							c-2.7777405-1.0144043-5.5400391-2.1770325-7.8887634-3.9717102
							c-3.4100037-2.5984192-5.7509155-6.3751221-7.4597473-10.3156433l6.5234375-20.9589233
							c0.0999756,0.0239868,15.3517456,7.0455017,34.3955994,4.8534851
							c10.736969-1.2328491,21.9732361,2.9417419,31.4071655,7.6860046
							c4.6661987,2.3487244,9.1919861,5.0641479,13.3276367,8.2633667
							C441.7770996,495.560791,447.9103394,500.2659912,447.3797913,504.2377625z" style="fill:#ef5d5f"/>
              <path d="M442.0190125,517.7058105c-0.2495422,0.6085815-0.670929,1.1548462-1.1626282,1.5996094
							c-3.7169189,3.3289795-10.9449158,0.6964722-15.2938232-1.6620483
							c0.2886047,1.5996094-1.1472168,2.5983887-2.6843872,3.1445923c-2.2705994,0.8115234-4.8143921,0.0936279-6.9367981-1.0455933
							c-2.122406-1.1392822-4.0108643-2.6998291-6.1799316-3.7454224
							c-4.0889587-1.9819946-8.7940369-1.9975586-13.3276367-2.2941284
							c-9.4729919-0.6164551-18.8598633-2.5983887-27.7710266-5.8756714
							c-2.7777405-1.0144043-5.5400391-2.1770325-7.8887634-3.9717102
							c-3.4100037-2.5984192-5.7509155-6.3751221-7.4597473-10.3156433l6.5234375-20.9589233
							c0,0,3.8077698,1.7478943,9.9798889,3.2304688c0.1249695,6.5311279,0.2575684,13.0622559,0.3823547,19.6011963
							c0.1109924,5.1749878,0.8578186,7.666626,6.1410522,9.8240051
							c10.0652466,4.0648499,19.793335,1.8312683,36.9317932,11.1582947
							c1.9195251,1.0456543,4.182312,2.2005005,6.1643066,1.2875366c0.8660278-0.3979492,1.5215759-1.1392822,2.3643494-1.5762329
							c2.2628174-1.1704712,4.9315796,0.1638794,7.3269653,1.0300293
							C435.3379211,519.3900146,439.5354004,517.7653198,442.0190125,517.7058105z" style="fill:#c52d25"/>
              <g>
                <path d="M425.0499268,518.1923218c-0.1376953-0.1279297-13.9047852-12.8125305-24.8564453-15.3955383
								c-0.402832-0.0947266-0.652832-0.4980469-0.5576172-0.9013672c0.0947266-0.4033203,0.4941406-0.6533203,0.9023438-0.5576172
								c11.3383789,2.6738281,24.9580078,15.2217102,25.5322266,15.7549133
								c0.3037109,0.2822266,0.3212891,0.7558594,0.0395508,1.0595703
								C425.8267517,518.4569702,425.3536072,518.4733887,425.0499268,518.1923218z" style="fill:#c52d25"/>
              </g>
              <g>
                <path d="M440.7125244,514.8270874c-0.2109375-0.1210938-21.2246094-12.1289368-33.9296875-17.8857727
								c-0.3774414-0.171875-0.5444336-0.6162109-0.3735352-0.9931641c0.1713867-0.3759766,0.6142578-0.5439453,0.9926758-0.3740234
								c12.7695313,5.7871094,33.8442383,17.8301086,34.0556641,17.9502258
								c0.359375,0.2060547,0.4838867,0.6640625,0.2783203,1.0234375
								C441.5333252,514.9029541,441.0792847,515.0340576,440.7125244,514.8270874z" style="fill:#c52d25"/>
              </g>
              <g>
                <path d="M442.987915,507.1190491c-0.2026367-0.1357422-20.3261719-13.5625-28.2314453-15.0820313
								c-0.4067383-0.078125-0.6728516-0.4707031-0.5947266-0.8779297c0.0776367-0.40625,0.4672852-0.6816406,0.8779297-0.5947266
								c8.2026367,1.5761719,27.9458008,14.7480469,28.7822266,15.3085938
								c0.3442383,0.2304688,0.4365234,0.6962891,0.2060547,1.0400391
								C443.7966309,507.2583923,443.3302612,507.3490601,442.987915,507.1190491z" style="fill:#c52d25"/>
              </g>
              <path d="M364.8898926,467.5559692l-1.7379761,42.3979492c0,0-25.0700073,3.5947876-35.1286316,0
							c0,0-69.271698,17.2816162-90.7174683-14.6023254s37.3877563-137.2149353,42.7017517-142.3391418
							c5.3139648-5.1242065,16.1317444-11.387146,20.4968262-12.7156372
							c4.3650513-1.3284912-12.2767639,106.0300598-12.2767639,106.0300598S311.4111938,450.3681641,364.8898926,467.5559692z" style="fill:#0179fb"/>
              <g>
                <path d="M328.0216064,510.70401c-0.4140625-0.0009766-0.7495117-0.3369141-0.7485352-0.7519531
								c0.0019531-0.9414063,0.0639648-23.1103516,1.6235352-27.6347656c0.1342773-0.390625,0.5629883-0.6025391,0.953125-0.4648438
								c0.3916016,0.1347656,0.6000977,0.5615234,0.4648438,0.953125
								c-1.4785156,4.2910156-1.5410156,26.921875-1.5415039,27.1503906
								C328.7713318,510.6851196,327.9212952,510.7487793,328.0216064,510.70401z" style="fill:#002197"/>
              </g>
              <g>
                <path d="M364.5948486,468.2450256c-0.8125-0.3476563-81.5908203-34.5146484-111.6391754-15.4140625
								c-0.3491211,0.2197266-0.8139648,0.1191406-1.0351563-0.2304688
								c-0.222168-0.3496094-0.1191406-0.8134766,0.2304688-1.0351563
								c30.7143707-19.5244141,109.687027,13.8701172,113.0337067,15.3007813
								c0.3808594,0.1630859,0.5576172,0.6035156,0.3945313,0.984375
								C365.4177551,468.2278748,364.9792175,468.4089355,364.5948486,468.2450256z" style="fill:#002197"/>
              </g>
            </g>
            <g>
              <path d="M288.0777588,447.0614319c-0.40625-0.0820313-0.6679688-0.4785156-0.5849609-0.8847656
							c0.1157227-0.5654297,11.4970703-56.8271484,7.2827148-82.53125
							c-0.0668945-0.4082031,0.2099609-0.7939453,0.6186523-0.8613281c0.4111328-0.0625,0.7949219,0.2089844,0.8618164,0.6191406
							c4.2587891,25.9755859-7.1772461,82.5058594-7.293457,83.0742188
							C288.8771973,446.893219,288.4684448,447.1448975,288.0777588,447.0614319z" style="fill:#002197"/>
            </g>
            <path d="M395.3580322,322.1208191c-0.4291992,0.1872864-0.9130859-0.0858459-1.3032227-0.3589478
						c-7.3266907-5.0888062-8.7626953-6.7341919-23.4325256-9.6445313
						c-3.1474609-0.6254578-8.0965576-1.5821533-10.6666565,0.4447937c-0.9597778,0.749054-0.4258423,1.1445923-0.1216125,2.3228455
						c-1.8101501-0.5618286-5.0361023,0.2053223-6.6359558,1.219696c-1.6072693,1.0143738-1.7288818,2.4973755-0.4961243,3.9331665
						c-1.8023682-0.4136047-4.4430542,1.731842-4.9503479,3.5108948c-0.4993286,1.7869263,1.4318237,2.4978638,3.1875305,3.0909119
						c-2.1302185,0.1638794-4.7012939,3.7445679-4.3423767,5.8513794l-0.647522-0.2653198
						c-0.164032-0.2028809-0.3122253-0.4057312-0.4448242-0.6320496c-1.0088196-1.6760864,0.4602661-4.0228577,2.3330994-4.6661987
						c-1.1923523,0.3138123-2.6014709-0.7993469-2.4344482-2.9963684c0.155426-2.1854858,2.1063538-3.7220154,4.229187-3.7220154
						c-0.7743225-2.449646-1.2640991-3.1917419,0.2575684-4.1044006c1.9988708-1.1841736,4.400177-1.5867615,6.6948547-1.2875061
						c-0.7869263-0.6952515-0.6743469-2.4180908,0.3278503-2.6686401
						C373.1582642,308.1221924,386.2439575,314.5284424,395.3580322,322.1208191z" style="fill:#c42f24"/>
          </g>
        </g>
        <g>
          <path d="M180.4522552,189.6464081c-1.3549805-0.5771484-2.7099609-2.5986328-4.4296875-6.6054688
					c-2.1816559-5.5177917-2.5404205-7.692688-2.6582031-7.265625c-0.15625,0.3818359-1.2504883,8.140625-1.4067383,9.5019531
					c-0.1044922,0.7988281-0.1567383,1.96875-0.1567383,2.5283203c0,1.9121094-0.9902344,3.0888672-2.6577148,3.1835938
					c-1.0424805,0.0585938-1.8764648-0.3134766-2.3452148-1.1738281c-0.3647461-0.6328125-0.4169922-0.8623047-0.4169922-3.0087891
					c0.0619812-5.1492462,2.2167511-25.2698822,6.5141602-28.0771484c1.2509766-0.8642578,2.9189453-0.7265625,4.0131836,0.3789063
					c1.5133972,1.3896332,0.5158844,8.6388245,2.6577148,15.7080078c0.7822266,2.7080078,1.2509766,4.1269531,1.4077148,4.2109375
					c0.1040039,0.0410156,0.3647461-0.7197266,0.5209961-1.7548828c3.7994385-18.2021637,3.389801-18.4810944,4.9511719-19.5458984
					c1.8358459-1.1990356,4.1522675-0.1739655,4.4819336,1.5175781c0.2130127,1.1287231-1.8610077,10.4204254-2.762207,14.9443359
					c-0.6799622,3.2963257-2.1670074,11.2828979-2.7099609,12.6542969
					c-0.4174805,1.1904297-1.1987305,2.2138672-2.0327148,2.6816406
					C182.6412201,189.94133,181.2862396,189.9716034,180.4522552,189.6464081z" style="fill:#23272f"/>
          <path d="M212.5557709,171.4950409c-0.5732422,4.9775391-2.1367188,9.5917969-4.3256836,12.7470703
					c-0.9902344,1.4091797-2.8666992,3.1953125-4.0126953,3.8193359c-1.2509766,0.6777344-3.3876953,1.2197266-4.2739258,1.1298828
					l-1.2509766-0.1621094c-3.8564453-0.4814453-6.7744141-3.3935547-7.7651367-7.7685547
					c-0.5209961-2.0234375-0.2602539-6.0957031,0.5214844-9.6845703c0.3647461-1.6542969,1.4589844-4.5615234,2.3969727-6.5742188
					c2.6577148-5.1894531,5.9414063-7.9414063,10.4755859-8.6191406
					C212.2657013,155.1707611,213.4916382,163.4864502,212.5557709,171.4950409z M204.529892,161.4091034
					c-0.5209961-0.0625-1.5634766,0.4619141-2.3974609,1.1162109c-2.0322266,1.6083984-4.4819336,7.2519531-5.2114258,11.5839844
					c-0.4692383,2.9658203-0.3652344,5.8046875,0.2080078,7.0791016c0.8862305,1.7685547,1.8764648,2.5058594,3.3876953,2.4199219
					c0.6254883-0.0361328,0.8339844-0.1416016,1.6157227-0.8388672c2.605957-2.3867188,4.1694336-7.0009766,4.7426758-13.703125
					C207.2398529,164.4276581,206.4063568,161.769455,204.529892,161.4091034z" style="fill:#23272f"/>
          <path d="M230.8990326,182.7675018c-0.6254883,1.3417969-1.1987305,2.4472656-1.1987305,2.5410156
					c0,0.046875-0.2602539,0.4345703-0.5209961,0.8222656c-1.9756317,2.431366-5.2970886,0.6637268-4.7426758-1.5498047
					c0.7294922-2.7470703,7.2441406-15.3857422,11.2573242-22.0039063c3.7001953-6.0410156,4.7944336-7.5019531,6.0976563-8.1826172
					c1.5634766-0.7890625,3.8041992-0.0771484,4.4819336,1.4707031c0.4169922,1.0029297,0.4692383,2.5390625,0.3647461,15.0927734
					c-0.1567383,13.1630859-0.1567383,13.1630859-0.5209961,13.8369141c-0.6254883,1.0625-1.3032227,1.4267578-2.6582031,1.5039063
					c-1.2504883,0.0712891-1.7719727-0.0859375-2.449707-0.8876953c-0.4159241-0.4549561-0.3676758-0.5797119-0.46875-5.9433594
					c-0.1595306,0.0162811-1.4986877,0.0124664-7.8696289,0.8203125
					C232.2022552,180.4081268,232.0977631,180.5536346,230.8990326,182.7675018z M235.3809662,174.81633l5.159668-0.2929688
					v-4.3847656c0-2.4257813-0.0522461-4.3818359-0.0522461-4.3818359c-0.15625,0.0087891-4.2211914,7.1425781-4.8466797,8.4853516
					L235.3809662,174.81633z" style="fill:#23272f"/>
          <path d="M247.6788177,180.4608612c0-1.3525391,1.3554688-2.6425781,2.9189453-2.7314453
					c2.484024-0.1396484,2.3891602,1.9726257,7.0356598,1.9326172c2.6577148-0.0576172,4.2216797-0.8935547,4.6904297-2.5058594
					c1.2857361-4.9067841-8.5243988-5.4009247-10.9448395-11.8789063c-0.8334961-2.0048828-0.5732422-4.6318359,0.5732422-6.609375
					c3.3225098-5.677948,14.0316925-7.7619781,17.8759918-3.3955078c1.1987305,1.3779297,1.1987305,2.6376953,0,3.6386719
					s-2.5009766,0.9824219-3.8041992-0.109375c-2.2494507-1.6175842-6.0298767-0.6051788-7.9741211,1.2460938
					c-1.3544922,1.2900391-1.5112305,2.7441406-0.46875,4.2246094c0.5209961,0.6699219,1.5112305,1.359375,4.5864258,3.2373047
					c4.1171875,2.5175781,5.5761719,4.1611328,6.097168,7.0234375c1.0947266,5.3945313-3.5961914,10.1865234-10.2148438,10.4697266
					c-0.9379883,0.0527344-2.0844879,0.0712891-2.5532379,0.0048828c-1.3032227-0.1123047-3.4921875-0.6884766-4.5341797-1.1416016
					C249.0342865,182.9960175,247.6788177,181.5800018,247.6788177,180.4608612z" style="fill:#23272f"/>
          <path d="M269.4112549,179.2264862c0-1.3535156,1.3549805-2.6425781,2.918457-2.7314453
					c2.5029907-0.1433258,2.3607483,1.9718933,7.0356445,1.9316406c2.6577148-0.0566406,4.2211914-0.8925781,4.6904297-2.5058594
					c1.2889709-4.914505-8.5200806-5.3868256-10.9448242-11.8789063c-0.8334961-2.0039063-0.5732422-4.6308594,0.5737305-6.609375
					c3.3159485-5.6665344,14.0224609-7.7724457,17.8759766-3.3955078c1.1987305,1.3789063,1.1987305,2.6386719,0,3.6386719
					c-1.1987305,1.0009766-2.5014648,0.9824219-3.8046875-0.109375c-0.7817383-0.5625-1.0419922-0.6875-1.8764648-0.7802734
					c-4.0821838-0.3520508-9.0259705,2.7580719-6.5664063,6.2509766c0.5209961,0.6699219,1.5112305,1.359375,4.5864258,3.2373047
					c4.1171875,2.5185547,5.5761719,4.1611328,6.0976563,7.0244141c1.0942383,5.3945313-3.5961914,10.1865234-10.215332,10.46875
					c-0.9375,0.0537109-2.0844727,0.0712891-2.5532227,0.0058594c-1.3032227-0.1132813-3.4921875-0.6884766-4.5341797-1.1425781
					C270.7662354,181.7616425,269.4112549,180.3456268,269.4112549,179.2264862z" style="fill:#23272f"/>
          <path d="M302.1397705,166.637619c-0.8339844,4.8046875-1.7202148,11.2460938-1.5634766,11.6103516
					c0.0522461,0.1835938,0.3125,0.2626953,0.5209961,0.25c0.2602539-0.0146484,0.78125,0.0957031,1.1464844,0.2148438
					c1.9282227,0.7773438,2.0327148,3.1972656,0.2084961,4.3261719c-0.625,0.4091797-0.7294922,0.4150391-5.4204102,0.7275391
					c-3.9086914,0.2226563-4.8466797,0.2294922-5.2631836,0.0654297c-0.8862305-0.3222656-1.3032227-0.9980469-1.3032227-1.9775391
					c0-1.3994141,0.8339844-2.1464844,2.8144531-2.6328125c0.5209961-0.0761719,0.9379883-0.2392578,0.9902344-0.2421875
					c0.1340942-0.1290436,0.8198853-6.0577545,1.6674805-11.4296875c0.4169922-2.0761719,2.1889648-10.1074219,2.449707-10.8212891
					c0.0522461-0.2363281-0.0522461-0.2773438-0.8862305-0.2294922c-1.8759766,0.1064453-2.9179688-0.6738281-2.9179688-2.1660156
					c0-1.5859375,0.7290039-2.1416016,3.8041992-2.8759766c2.6054688-0.6601563,4.8989258-0.9306641,6.9311523-0.8134766
					c1.9287109,0.1240234,2.6064453,0.3183594,3.2832031,1.0263672c0.3652344,0.4462891,0.4174805,0.6757813,0.4174805,1.515625
					c0,1.0253906-0.2607422,1.5078125-1.1464844,2.1640625c-0.4174805,0.3046875-0.7299805,0.3681641-2.1367188,0.4482422
					c-1.5117188,0.0400391-1.6162109,0.0917969-1.6679688,0.375
					C302.6159363,164.0061798,302.1578369,166.5373535,302.1397705,166.637619z" style="fill:#23272f"/>
          <path d="M306.3609619,171.0155487c0-3.9189453,0.2084961-5.2363281,1.4589844-8.7597656
					c1.5639648-4.1933594,2.762207-6.2197266,5.0029297-8.5400391c2.9711914-2.9677734,5.8896484-4.2539063,9.1728516-4.0664063
					c2.2929688,0.1494141,4.7421875,1.3623047,5.5244141,2.7177734c0.9902344,1.7626953-0.3125,3.7958984-2.449707,3.7304688
					c-0.6254883-0.0097656-0.9902344-0.1298828-1.4589844-0.4765625c-0.9379883-0.7392578-1.6679688-0.9316406-2.762207-0.7753906
					c-1.3032227,0.1669922-1.9287109,0.5751953-3.3354492,1.9619141c-1.6157227,1.5839844-2.6577148,3.3701172-3.7001953,6.0410156
					c-1.2509766,3.1962891-1.4594727,4.3271484-1.4594727,7.6396484c0,2.5185547,0,2.8916016,0.3652344,3.8505859
					c0.46875,1.1865234,1.5112305,2.2929688,2.3969727,2.5234375c0.9384766,0.2724609,2.7099609,0.0322266,3.4916992-0.3388672
					c1.4072266-0.7324219,3.0229492-3.7626953,3.3876953-6.3037109l0.1044922-0.9384766
					c-0.4022827,0.0812683-1.438446,0.2297516-2.449707,0.5595703c-1.9804688,0.671875-3.5444336,0.3876953-4.2734375-0.6435547
					c-0.8339844-1.1660156-0.6254883-2.5771484,0.46875-3.4785156c0.5214844-0.5429688,0.9902344-0.7089844,2.8144531-1.2333984
					c1.9282227-0.5761719,2.3452148-0.6455078,3.7001953-0.6767578c1.7719727-0.0068359,2.762207,0.3095703,3.9609375,1.2685547
					c1.2509766,0.9550781,1.6152344,1.9609375,1.6152344,4.0595703c0,4.3378906-2.6054688,9.5234375-5.7329102,11.6601563
					c-1.8237305,1.2226563-4.6899414,1.9462891-6.7744141,1.7841797c-1.4594727-0.1035156-3.2319336-0.6083984-4.0131836-1.0771484
					c-2.0322266-1.0976563-3.7001953-3.1953125-4.5341797-5.8535156
					C306.4127197,174.3710175,306.3609619,174.0936737,306.3609619,171.0155487z" style="fill:#23272f"/>
          <path d="M343.6739502,180.3700409c-1.3549805-0.5761719-2.7099609-2.5986328-4.4296875-6.6044922
					c-2.18396-5.5223389-2.5403442-7.6940308-2.6582031-7.2666016c-0.15625,0.3818359-1.2504883,8.140625-1.4072266,9.5019531
					c-0.1040039,0.7988281-0.15625,1.96875-0.15625,2.5283203c0,1.9121094-0.9902344,3.0888672-2.6577148,3.1835938
					c-1.0424805,0.0595703-1.8764648-0.3134766-2.3452148-1.1738281c-0.3647461-0.6318359-0.4169922-0.8613281-0.4169922-3.0078125
					c0.0619202-5.1451721,2.2153625-25.2719727,6.5141602-28.0771484c1.2509766-0.8642578,2.9189453-0.7265625,4.0131836,0.3779297
					c1.517395,1.3959045,0.5121765,8.6266785,2.6577148,15.7080078c0.7822266,2.7080078,1.2509766,4.1279297,1.4077148,4.2109375
					c0.2386475,0.0941162,0.559967-2.1069489,1.6674805-7.3242188c0.4692383-2.0322266,1.1987305-5.6650391,1.6157227-8.0224609
					c0.9379883-4.6699219,1.1464844-5.2421875,2.1889648-5.9541016c1.8358459-1.1990356,4.1522522-0.1739655,4.4819336,1.5175781
					c0.2042847,1.0825653-1.336792,7.7841949-4.2216797,22.2568359c-0.4692383,2.4052734-1.0424805,4.8164063-1.2504883,5.3427734
					c-0.4174805,1.1894531-1.1987305,2.2128906-2.0327148,2.6806641
					C345.862915,180.6649628,344.5079346,180.6952362,343.6739502,180.3700409z" style="fill:#23272f"/>
          <path d="M374.3170166,159.7362518c-0.0522461-0.0439453-0.9379883,1.6865234-4.3251953,8.1289063
					c-1.7724609,3.4589844-3.0751953,4.4199219-5.4208984,3.9472656c-0.3642578-0.0263672-0.9375-0.3671875-1.3022461-0.6728516
					c-1.0947266-0.9169922-1.2509766-1.5146484-1.4077148-5.5175781l-0.0517578-3.5419922
					c-0.1004944,0.3009186-3.8612976,10.7600861-4.7949219,14.8720703c-0.2084961,0.8056641-0.46875,1.7070313-0.6772461,1.9990234
					c-0.5214844,0.8222656-1.8237305,1.4091797-2.8144531,1.1855469c-1.1982422-0.2587891-2.0322266-1.2841797-2.0322266-2.4033203
					c0-1.9589844,2.3974609-10.7714844,4.8984375-17.7705078c3.7006836-10.3330078,5.4204102-12.6699219,8.8076172-12.0224609
					c1.1987305,0.2109375,2.1367188,1.2314453,2.449707,2.7070313c0.1861877,1.1519165,0.3605347,8.4959412,0.3647461,8.6074219
					c3.0041504-4.9142456,6.1827087-11.3501282,8.390625-12.5107422c1.1987305-0.5820313,2.8666992-0.3964844,3.7524414,0.4394531
					c2.091095,1.816864,1.072937,6.1873016-1.1459961,23.0146484c-0.5219727,4.3212891-0.9384766,6.7705078-1.2509766,7.3017578
					c-0.7822266,1.3505859-2.6064453,1.9677734-4.0654297,1.3037109c-0.9897461-0.4101563-1.4589844-1.1298828-1.4589844-2.2021484
					C372.2325439,174.6103516,374.4434204,159.8425751,374.3170166,159.7362518z" style="fill:#23272f"/>
          <path d="M389.0655518,178.1630096c-1.5112305-0.2871094-2.6582031-0.828125-3.9609375-1.9199219
					c-1.4594727-1.2226563-2.1367188-2.4912109-2.5537109-4.7529297c-0.5214844-2.5361328-0.15625-7.3613281,0.8857422-12.0380859
					c0.9902344-4.3945313,2.3974609-9.0458984,3.3354492-11.1044922c0.4169922-0.9111328,1.3032227-1.7070313,2.0322266-1.8886719
					c4.3779297-1.0410156,12.0395508-1.5703125,13.7592773-0.921875c1.3544922,0.4824219,2.0844727,1.8398438,1.6157227,3.0800781
					c-0.2612305,0.7148438-1.3554688,1.6621094-2.1889648,1.8505859c-0.3129883,0.0634766-1.3554688,0.0771484-2.2412109,0.0332031
					c-2.1889648-0.1542969-8.1303711,0.1835938-8.3383789,0.4746094
					c-0.3652344,0.5800781-2.5541992,10.3603516-2.3452148,10.5820313c0.0517578-0.0029297,0.9375-0.0527344,2.0322266-0.2089844
					c2.5019531-0.3759766,4.8989258-0.3251953,5.7851563,0.0908203c1.7197266,0.7890625,1.9799805,2.8261719,0.5209961,4.0751953
					c-0.6777344,0.6445313-1.1464844,0.765625-4.5341797,0.8642578c-3.5380554,0.0208282-4.3675842,0.3306122-4.5341797,0.3515625
					v1.4921875c0,3.4521484,0.8862305,4.7539063,3.0751953,4.6298828c0.9902344-0.0566406,3.074707-0.828125,5.0551758-1.8271484
					c3.723053-2.0850983,6.15271,1.4920349,3.9604492,3.6933594c-0.9379883,0.8935547-4.4296875,2.5380859-6.8266602,3.1865234
					C392.2965088,178.2596893,390.2120361,178.3778534,389.0655518,178.1630096z" style="fill:#23272f"/>
          <path d="M417.0509033,176.200119c-2.5853271-1.1012115-5.2735596-8.5021973-6.0976563-11.1289063
					c-0.8862305-2.7949219-0.9384766-2.9316406-0.9902344-2.7421875c-0.15625,0.3818359-1.2504883,8.140625-1.4072266,9.5019531
					c-0.1040039,0.7988281-0.15625,1.96875-0.15625,2.5283203c0,1.9121094-0.9902344,3.0888672-2.6582031,3.1835938
					c-1.0419922,0.0585938-1.8759766-0.3134766-2.3452148-1.1738281c-0.3647461-0.6328125-0.4165039-0.8623047-0.4165039-3.0087891
					c0.0614929-5.1573181,2.217041-25.2700806,6.5141602-28.0771484c1.2509766-0.8632813,2.918457-0.7265625,4.0131836,0.3789063
					c1.5101318,1.3866577,0.5170898,8.642868,2.6577148,15.7080078c0.7817383,2.7080078,1.2509766,4.1269531,1.4072266,4.2109375
					c0.2392273,0.0939026,0.5604553-2.1069489,1.6679688-7.3242188c0.46875-2.0322266,1.1987305-5.6660156,1.6157227-8.0224609
					c0.9375-4.6699219,1.1464844-5.2431641,2.1884766-5.9541016c1.835968-1.1991272,4.1521301-0.1739655,4.4824219,1.5175781
					c0.2134094,1.1363068-1.8935547,10.5829773-2.762207,14.9443359
					c-0.6972351,3.3800049-2.1692505,11.2884979-2.7099609,12.6542969
					c-0.4174805,1.1904297-1.1987305,2.2138672-2.0332031,2.6816406
					C419.2398682,176.4950409,417.8843994,176.5253143,417.0509033,176.200119z" style="fill:#23272f"/>
          <path d="M450.5601807,147.3339081c-0.9375,0.8925781-1.5629883,0.9746094-4.5336914,0.8173828
					c-1.3549805-0.109375-2.5537109-0.1347656-2.6582031-0.0820313c-0.1553955,0.218399-0.3840942,1.5724945-2.7099609,13.4013672
					c-2.1750488,10.4221039-1.0332336,12.1750031-2.9702148,13.5097656
					c-0.6777344,0.4580078-2.1889648,0.6835938-2.9707031,0.4013672c-0.7299805-0.2373047-1.4589844-0.9892578-1.5634766-1.6367188
					c-0.3129883-1.3808594,0.3647461-6.8310547,1.5634766-12.7763672c0.6777344-3.3974609,2.6577148-11.8125,2.9707031-12.4833984
					c0.2091675-0.4811859-5.3933411,0.6740265-7.1918945,0.5488281c-2.3668823-0.4706268-2.8986816-3.6661377,0.3647461-4.6855469
					c0.9897461-0.2900391,6.2016602-1.0517578,9.4848633-1.4248047c4.1171875-0.4208984,8.390625-0.2900391,9.6933594,0.3349609
					C451.6549072,144.0995331,451.9156494,146.0448456,450.5601807,147.3339081z" style="fill:#23272f"/>
          <path d="M448.7354736,169.03508c0-1.3525391,1.3554688-2.6425781,2.9189453-2.7314453
					c2.4930115-0.1427612,2.382843,1.9740601,7.0356445,1.9316406c2.6577148-0.0566406,4.2216797-0.8925781,4.6904297-2.5058594
					c1.2878418-4.9147949-8.5200806-5.3868256-10.9448242-11.8789063c-0.8334961-2.0039063-0.5732422-4.6308594,0.5732422-6.609375
					c3.3207703-5.6734009,14.0283813-7.767746,17.8759766-3.3945313c1.1987305,1.3779297,1.1987305,2.6376953,0,3.6386719
					c-1.1987305,1-2.5009766,0.9814453-3.8041992-0.1103516c-0.7822266-0.5615234-1.0424805-0.6875-1.8764648-0.7802734
					c-1.3027344-0.1123047-3.1787109,0.2275391-4.3774414,0.8085938c-0.4692383,0.2128906-1.2504883,0.7714844-1.7202148,1.2177734
					c-1.3544922,1.2900391-1.5112305,2.7441406-0.46875,4.2246094c0.5209961,0.6699219,1.5112305,1.359375,4.5864258,3.2373047
					c4.1171875,2.5185547,5.5761719,4.1611328,6.097168,7.0244141c1.0947266,5.3945313-3.5961914,10.1865234-10.2148438,10.46875
					c-0.9379883,0.0537109-2.0844727,0.0712891-2.5532227,0.0058594c-1.3032227-0.1132813-3.4921875-0.6884766-4.5341797-1.1416016
					C450.0909424,171.5702362,448.7354736,170.1542206,448.7354736,169.03508z" style="fill:#23272f"/>
        </g>
        <g>
          <path d="M213.2471771,253.6727753c-0.2578125,0.2402344-0.3803711,0.7324219-0.3852539,1.5488281
					c-0.0142212,2.8889313-1.007019,12.0763702-2.4780273,17.4394684
					c-0.8686523-2.6953125-2.5913086-8.5371094-5.1308594-17.4043121c-0.1665039-0.546875-0.4355469-1.0644531-0.7993164-1.5380859
					c-0.4086914-0.53125-0.7167969-0.7763672-0.9985352-0.7939453c-0.621521-0.0374756-0.7261353,0.7366943-0.7294922,1.3339844
					c-0.020874,3.7327423-3.6565552,18.6286774-3.6655273,20.699234c-0.0054932,0.9564819,0.5266724,2.7426758,1.456543,2.8027344
					c1.3034058,0.145813,1.5501709-5.4234619,3.9179688-16.0839844c2.2644653,7.1379395,3.2764893,12.319397,4.6044922,15.2265625
					c0.7976074,1.7478027,1.9112549,2.0921021,2.8261719,0.3935547c2.1149902-3.9285278,3.7062378-17.8360596,3.7231445-20.9550781
					C215.5961761,255.0643768,214.1065521,252.8733368,213.2471771,253.6727753z" style="fill:#ef5d5f"/>
          <path d="M221.4166107,262.1942749c-3.1382446,2.1766357-5.5835571,9.1740112-4.1796875,13.7421875
					c0.4622192,1.5012207,1.4238281,3.0562134,2.9912109,3.15625c5.0982513,0.332428,8.757019-8.8119507,6.8793945-14.2060547
					C225.9519501,261.5654297,223.4620819,260.7699585,221.4166107,262.1942749z M224.8438568,267.796814
					c-0.0155029,2.9483643-2.2114258,8.5482178-4.4360352,8.4384766c-0.7519531-0.2046509-1.6997681-4.7756348,1.2260742-9.8720703
					c0.4685669-0.8157959,1.3692627-2.1608887,2.3066406-2.1162109c0.0014648,0.0009766,0.1279297,0.0361328,0.3212891,0.4931641
					C224.587265,265.5084229,224.851059,266.7197266,224.8438568,267.796814z" style="fill:#ef5d5f"/>
          <path d="M247.2466888,263.0448608c-0.6307373-0.0357056-1.1596069,0.4484253-1.5893555,0.9140625
					c-1.4322357,1.5508728-3.7334747,6.2220459-4.6435547,8.1347656c0.290741-1.3278503,0.6184692-3.0746155,0.8330078-4.5957031
					c0.2074738-1.4616394,0.393631-2.4568481-0.0834961-3.4736328c-0.3231812-0.683075-0.9410553-1.5279846-1.6958008-1.5791016
					c-0.144043,0.0009766-0.2670898,0.0400391-0.3740234,0.1396484c-0.2133789,0.1992188-0.4594727,0.6767578-0.4707031,2.6152344
					c-0.0366669,6.6937256-2.0555267,11.4680176-2.0600586,12.5830078c-0.0032196,0.6440125,0.4436188,1.5151062,0.871582,2.0107422
					c0.5541077,0.6418152,0.9842224,0.6132202,1.4213867,0.1416016c0.4690094-0.5092163,0.6264038-1.026123,3.5854492-6.7402344
					c0.6946259-1.3434143,2.1847076-4.2029419,3.0527344-5.4365234c0.3761902-0.5348816,0.5730286-0.7725525,0.9951172-0.8095703
					c0.3808441,0.0267029,0.5097351,1.5320435,0.5073242,1.9228516c-0.0193481,3.4679871-2.1974792,8.0111389-2.2104492,10.5537109
					c-0.0037994,0.6858521,0.192215,1.3330078,0.878418,1.3330078c2.0700226,0,3.5352936-8.3014221,3.8388672-10.3798828
					c0.2538147-1.7474976,0.4319611-3.0914001-0.206543-4.6542969
					C249.6031342,265.008728,248.4778748,263.1264648,247.2466888,263.0448608z" style="fill:#ef5d5f"/>
          <path d="M258.7027283,263.7802124c-1.7146301-0.1296082-3.1393585,1.1805725-4.1093597,2.5917969
					c-2.0966492,3.0509949-3.4413757,8.1535339-2.3168945,11.8085938c0.4624329,1.5046997,1.4264679,3.0574646,2.9907227,3.1572266
					c5.0545807,0.3314514,8.7839508-8.7376404,6.8793793-14.2070313
					C261.808197,266.1600952,260.4350586,263.8895264,258.7027283,263.7802124z M255.4473724,278.4804077
					c-0.065918-0.0048828-0.2983398-0.0820313-0.5229492-0.8945313c-1.1945801-4.3079834,2.1694489-11.2088623,4.0556488-11.09375
					c0.0009766,0.0009766,0.1279297,0.0371094,0.3212891,0.4921875c0.3284912,0.7765808,0.5887146,1.984375,0.581543,3.0576172
					c-0.0129395,2.4565735-1.2971497,6.0357971-2.9707031,7.7294922
					C256.4170837,278.2723999,255.9249115,278.4979858,255.4473724,278.4804077z" style="fill:#ef5d5f"/>
          <path d="M269.7159119,268.1454468c1.127533-0.1879272,4.5899963-0.731781,4.5957031-1.8759766
					c0.0103455-1.6210632-2.5890198-1.2906189-3.9985352-1.2519531c0.3327942-1.6447449,0.7410278-3.3624573,0.0083008-4.5019531
					c-0.4567871-0.7119141-1.4877319-1.7298279-2.1044922-1.1523438c-0.5735779,0.5351563-0.0224915,1.4193726-0.7963867,5.9599609
					c-2.4423828,0.3925781-3.5356445,0.8867188-3.5395508,1.5957031c-0.0024414,0.3984375,0.1508789,0.8242188,0.4550781,1.265625
					c0.6516724,0.950592,1.1338501,0.8054199,2.4165039,0.5400391c-1.7635803,7.7980042-2.8276978,9.7166748-1.769043,11.5888672
					c0.7797241,1.3907471,2.4624939,2.3188171,4.3671875,1.5361328c1.0198975-0.4196777,2.1050415-1.1880798,2.7519531-2.0546875
					c0.8601074-1.1468201,0.5124817-2.1659241-0.2138672-2.2119141c-0.2397766-0.026123-0.6056213,0.184967-1.7563477,0.6611328
					c-0.7077637,0.2919312-1.6017761,0.6140442-2.3666992,0.5732422c-0.2202148-0.0146484-0.3564453-0.0947266-0.3544922-0.4492188
					C267.4169617,277.9554443,269.5501709,268.932251,269.7159119,268.1454468z" style="fill:#ef5d5f"/>
          <path d="M282.8667908,265.9120483c-1.2138977-0.9657593-2.6616211-0.8920593-3.9145508-0.0332031
					c-3.8720398,2.6456604-7.4207153,12.304657-2.6137695,16.0185547c0.8447571,0.6508789,1.864624,0.9648438,2.8613281,0.9648438
					c1.8166199,0,4.8470154-1.5110474,4.8554688-3.0791016c0.0039063-0.5927734-0.3349609-0.9541016-0.9287109-0.9921875
					c-0.4994202-0.0866699-2.2105713,1.072937-4.2832031,0.9443359c-1.482666-0.0953369-2.2611389-0.7783813-2.2524414-2.4521484
					c0.0039063-0.6923828,0.1098633-1.4824219,0.3149414-2.3515625c4.665802,1.8313904,10.1187439-0.0835876,8.3237305-5.4648438
					C284.7890625,268.142395,283.9579773,266.7833252,282.8667908,265.9120483z M282.9844666,271.243103
					c-0.0071411,1.2902527-1.8738708,1.7045898-3.1611328,1.6230469c-0.7841797-0.0507813-1.4990234-0.1757813-2.1293945-0.3730469
					c0.5954895-1.4369812,2.0393372-4.0576172,3.5766602-4.0166016
					C281.9032898,268.5185852,282.9909668,269.9783325,282.9844666,271.243103z" style="fill:#ef5d5f"/>
          <path d="M294.4414978,266.0682983c-1.7993469-0.1125793-4.4336243,1.9819336-5.5703125,3.6689453
					c-2.3565979,3.5161133,1.8438416,5.7605591,3.5385742,7.8056641c0.7380676,0.8908997,1.0847168,2.0808716,0.0639648,2.5947266
					c-0.8390503,0.4186401-2.8570557,0.4261475-3.8168945-0.2587891c-0.4477539-0.3193359-0.8120117-0.6357422-1.0830078-0.9414063
					c-0.5386047-0.6015015-1.3114014-0.8800659-1.6601563-0.1630859c-0.4294434,0.8696594-0.0307617,1.7368774,0.5664063,2.4960938
					c0.9322815,1.1799927,2.5744934,2.2329407,4.4189453,2.3496094c2.8942871,0.1905518,5.144043-2.0536804,5.1552734-3.9404297
					c0.0048828-0.9462891-0.2602539-1.8681641-0.7890625-2.7402344c-0.5185547-0.8525391-1.105957-1.5712891-1.7480469-2.1367188
					c-2.065918-1.7675781-2.3720703-2.4609375-2.3706055-2.7177734c0.0056458-1.1266174,2.184906-2.5787659,3.1655273-2.5634766
					c0.9315491,0.0613708,1.3782043,1.3078918,2.1713867,1.3583984c0.3755493,0.0325012,0.6958313-0.2105713,0.699707-0.8125
					C297.1856384,269.593689,295.8710022,266.1616516,294.4414978,266.0682983z" style="fill:#ef5d5f"/>
        </g>
      </g>
    </g>
  </g>
</svg>
