<svg xmlns="http://www.w3.org/2000/svg" version="1.1" xmlns:xlink="http://www.w3.org/1999/xlink" xmlns:svgjs="http://svgjs.dev/svgjs" width="1000" height="1000"><style>
    #light-icon {
      display: inline;
    }
    #dark-icon {
      display: none;
    }

    @media (prefers-color-scheme: dark) {
      #light-icon {
        display: none;
      }
      #dark-icon {
        display: inline;
      }
    }
  </style><g id="light-icon"><svg xmlns="http://www.w3.org/2000/svg" version="1.1" xmlns:xlink="http://www.w3.org/1999/xlink" xmlns:svgjs="http://svgjs.dev/svgjs" width="1000" height="1000"><g clip-path="url(#SvgjsClipPath1110)"><rect width="1000" height="1000" fill="#ffffff"></rect><g transform="matrix(7,0,0,7,150,150)"><svg xmlns="http://www.w3.org/2000/svg" version="1.1" xmlns:xlink="http://www.w3.org/1999/xlink" xmlns:svgjs="http://svgjs.dev/svgjs" width="100" height="100"><svg xmlns="http://www.w3.org/2000/svg" enable-background="new 0 0 100 100" viewBox="0 0 100 100"><g><path fill="#2ed9f5" d="M34.638 49.128c-3.254 0-7.781 2.336-8.264 5.494l-1.153 7.755v18.021h14.642V47.504L34.638 49.128zM74.779 62.376l-1.154-7.755c-.483-3.158-5.009-5.494-8.264-5.494l-5.225-1.624v32.893h14.643V62.376z" data-darkreader-inline-fill="" style="--darkreader-inline-fill: var(--darkreader-background-2ed9f5, #0897ae);"></path><g><polygon fill="#ff3e3e" points="50 44.355 39.863 47.504 39.863 80.398 60.137 80.398 60.137 47.504" data-darkreader-inline-fill="" style="--darkreader-inline-fill: var(--darkreader-background-ff3e3e, #a70000);"></polygon></g><g><g><g><g><polygon fill="#d1f7ff" points="15.083 40.976 20.715 40.976 27.473 45.481 27.473 40.976 35.358 40.976 35.358 26.333 15.083 26.333" data-darkreader-inline-fill="" style="--darkreader-inline-fill: var(--darkreader-text-d1f7ff, #acf1ff);"></polygon><path d="M28.599,47.586l-8.225-5.484h-6.417V25.207h22.527v16.895h-7.885V47.586z M16.21,39.849h4.846l5.291,3.527v-3.527
						h7.884V27.46H16.21V39.849z"></path></g></g></g><g><rect width="13.516" height="2.253" x="18.462" y="29.712"></rect></g><g><rect width="7.885" height="2.252" x="18.462" y="34.218"></rect></g></g><g><path d="M73.831,63.656l-1.32-8.869c-0.372-2.44-4.243-4.534-7.149-4.534l-0.334-0.051L50,45.534l-15.362,4.719
			c-2.907,0-6.777,2.094-7.149,4.538l-1.319,8.864l-2.228-0.332l1.319-8.868c0.601-3.934,5.698-6.373,9.2-6.453L50,43.175
			l15.54,4.828c3.501,0.08,8.599,2.519,9.199,6.449l1.32,8.873L73.831,63.656z"></path></g><g><g><path fill="#fff" d="M64.642,75.783c7.884,0,19.148,5.7,19.148,5.7l1.126,3.42L50,82.623v-2.28
				C50,80.343,56.758,75.783,64.642,75.783z" data-darkreader-inline-fill="" style="--darkreader-inline-fill: var(--darkreader-background-ffffff, #181a1b);"></path><path d="M86.508,86.135l-37.635-2.457v-3.935l0.496-0.335c0.288-0.194,7.138-4.753,15.273-4.753
				c8.06,0,19.187,5.584,19.656,5.822l0.415,0.21L86.508,86.135z M51.126,81.567l32.199,2.103l-0.457-1.385
				c-2.078-1.003-11.534-5.377-18.226-5.377c-6.25,0-11.855,3.06-13.516,4.058V81.567z"></path></g><g><path d="M49.952,81.935l-1.545-1.639l0.82-0.772c8.602-8.108,20.426-13.126,32.44-13.767l1.125-0.06l0.12,2.249l-1.125,0.06
				c-11.49,0.613-22.795,5.409-31.015,13.156L49.952,81.935z"></path></g><g><path d="M49.903,82.503l-1.494-1.686l0.843-0.747c0.571-0.506,14.209-12.318,33.732-6.507l1.08,0.321l-0.642,2.159l-1.08-0.321
				c-18.336-5.457-31.465,5.919-31.596,6.034L49.903,82.503z"></path></g><g><path fill="#fff" d="M35.358,75.783c-7.884,0-19.148,5.7-19.148,5.7l-1.126,3.42L50,82.623v-2.28
				C50,80.343,43.242,75.783,35.358,75.783z" data-darkreader-inline-fill="" style="--darkreader-inline-fill: var(--darkreader-background-ffffff, #181a1b);"></path><path d="M13.492,86.135l1.794-5.447l0.415-0.21c0.47-0.238,11.596-5.822,19.657-5.822c8.135,0,14.985,4.558,15.272,4.753
				l0.496,0.335v3.935L13.492,86.135z M17.131,82.286l-0.456,1.385l32.198-2.103v-0.601c-1.661-0.998-7.266-4.058-13.516-4.058
				C28.665,76.909,19.209,81.283,17.131,82.286z"></path></g><g><path d="M50.047,81.935l-0.82-0.773c-8.22-7.747-19.525-12.543-31.014-13.156l-1.125-0.06l0.12-2.249l1.125,0.06
				c12.014,0.641,23.838,5.659,32.44,13.767l0.82,0.772L50.047,81.935z"></path></g><g><path d="M50.098,82.501l-0.844-0.744c-0.131-0.116-13.302-11.481-31.597-6.035l-1.08,0.321l-0.642-2.159l1.08-0.321
				c19.522-5.812,33.161,6.001,33.732,6.507l0.842,0.746L50.098,82.501z"></path></g><g><path fill="#7f7f7f" d="M46.621,83.214c0-0.933,1.512-2.816,3.379-2.816c1.866,0,3.379,1.883,3.379,2.816
				c0,0.933-1.513,1.69-3.379,1.69C48.134,84.903,46.621,84.146,46.621,83.214z" data-darkreader-inline-fill="" style="--darkreader-inline-fill: var(--darkreader-text-7f7f7f, #988f81);"></path><path d="M50,86.029c-2.611,0-4.505-1.184-4.505-2.815c0-1.557,2.018-3.942,4.505-3.942c2.487,0,4.506,2.385,4.506,3.942
				C54.505,84.845,52.611,86.029,50,86.029z M47.76,83.163c0.189,0.212,0.976,0.614,2.24,0.614c1.356,0,2.164-0.464,2.271-0.657
				c-0.066-0.302-1.07-1.596-2.271-1.596C48.857,81.524,47.893,82.694,47.76,83.163z"></path></g></g><g><g><g><g><g><g><g><g><g><g><g><g><g><g><path fill="#fff" d="M66.895,65.756v-7.9V65.756z" data-darkreader-inline-fill="" style="--darkreader-inline-fill: var(--darkreader-text-ffffff, #e8e6e3);"></path><rect width="2.252" height="10.152" x="65.769" y="56.729"></rect></g><g><path fill="#fff" d="M33.105,65.756v-7.9V65.756z" data-darkreader-inline-fill="" style="--darkreader-inline-fill: var(--darkreader-text-ffffff, #e8e6e3);"></path><rect width="2.253" height="10.152" x="31.978" y="56.729"></rect></g><g><g><path fill="#fcc18a" d="M52.813,48.136c-1.702,1.087-3.925,1.087-5.626,0
																	c-0.833-0.532-1.528-1.291-1.528-2.34V43.23h8.682v2.566C54.341,46.846,53.646,47.604,52.813,48.136z" data-darkreader-inline-fill="" style="--darkreader-inline-fill: var(--darkreader-text-fcc18a, #fcb97b);"></path><path d="M50,50.081c-1.19,0-2.381-0.332-3.419-0.995c-1.693-1.081-2.048-2.386-2.048-3.29v-3.692h10.935v3.692
																	c0,0.904-0.355,2.208-2.048,3.29h0C52.381,49.749,51.19,50.081,50,50.081z M52.813,48.136h0.011H52.813z
																	 M46.785,44.357v1.439c0,0.185,0,0.747,1.008,1.391c1.34,0.856,3.073,0.856,4.414,0
																	c1.008-0.644,1.008-1.206,1.008-1.391v-1.439H46.785z"></path></g></g></g></g></g><g><ellipse cx="50" cy="34.881" fill="#fcc18a" rx="8.369" ry="9.674" data-darkreader-inline-fill="" style="--darkreader-inline-fill: var(--darkreader-text-fcc18a, #fcb97b);"></ellipse><path d="M50,45.682c-5.235,0-9.496-4.846-9.496-10.8c0-5.955,4.26-10.8,9.496-10.8c5.236,0,9.496,4.845,9.496,10.8
													C59.495,40.836,55.236,45.682,50,45.682z M50,26.333c-3.993,0-7.243,3.835-7.243,8.548c0,4.713,3.249,8.548,7.243,8.548
													c3.994,0,7.243-3.835,7.243-8.548C57.243,30.168,53.994,26.333,50,26.333z"></path></g></g></g></g></g></g></g></g></g></g></g><g><g><path d="M65.769,30.839h-2.253v-1.126c0-3.088-1.158-5.425-3.441-6.947l-0.937-0.625l1.25-1.874l0.937,0.625
				c2.907,1.938,4.444,4.988,4.444,8.821V30.839z"></path></g><g><g><polygon fill="#877de0" points="50 27.846 66.073 21.195 50 15.07 33.927 21.195" data-darkreader-inline-fill="" style="--darkreader-inline-fill: var(--darkreader-background-877de0, #261c77);"></polygon><path d="M50,29.065l-19.123-7.913L50,13.865l19.123,7.286L50,29.065z M36.977,21.237L50,26.627l13.023-5.389L50,16.275
					L36.977,21.237z"></path></g><g><g><path fill="#877de0" d="M41.647,30.839c0,0,3.847-1.126,8.352-1.126c4.506,0,8.352,1.126,8.352,1.126l-1.126-7.884
						c0,0-2.721-1.126-7.227-1.126c-4.505,0-7.226,1.126-7.226,1.126L41.647,30.839z" data-darkreader-inline-fill="" style="--darkreader-inline-fill: var(--darkreader-text-877de0, #857bdf);"></path><path d="M59.714,32.409l-1.678-0.489c-0.037-0.011-3.758-1.081-8.037-1.081c-4.278,0-7.999,1.07-8.037,1.081l-1.678,0.489
						l1.464-10.25l0.594-0.245c0.119-0.049,2.981-1.212,7.656-1.212c4.676,0,7.537,1.163,7.657,1.212l0.593,0.245L59.714,32.409z
						 M50,28.586c2.842,0,5.411,0.427,7.003,0.766l-0.794-5.556c-0.988-0.302-3.177-0.842-6.209-0.842
						c-3.03,0-5.219,0.539-6.208,0.842l-0.794,5.556C44.589,29.013,47.158,28.586,50,28.586z"></path></g></g></g></g><g><path fill="#fad151" d="M75.906,44.668c-0.46,0-0.909-0.047-1.345-0.128l-1.032,1.784l-4.256-2.452l1.032-1.784
			c-0.582-0.679-1.038-1.464-1.343-2.323h-2.066v-4.903h2.066c0.305-0.859,0.761-1.645,1.343-2.323l-1.032-1.784l4.256-2.451
			l1.032,1.784c0.436-0.08,0.884-0.128,1.345-0.128c0.46,0,0.908,0.048,1.345,0.128l1.032-1.784l4.257,2.451l-1.033,1.784
			c0.582,0.679,1.038,1.465,1.343,2.323h2.067v4.903H82.85c-0.305,0.859-0.761,1.645-1.343,2.323l1.033,1.784l-4.257,2.452
			l-1.032-1.784C76.814,44.621,76.366,44.668,75.906,44.668z" data-darkreader-inline-fill="" style="--darkreader-inline-fill: var(--darkreader-text-fad151, #fad254);"></path><path d="M77.87,47.861l-1.216-2.102c-0.507,0.047-0.99,0.047-1.497,0l-1.217,2.102l-6.21-3.575l1.219-2.107
			c-0.285-0.406-0.534-0.837-0.744-1.288h-2.438v-7.156h2.438c0.21-0.452,0.459-0.882,0.744-1.288l-1.219-2.106l6.21-3.577
			l1.216,2.102c0.505-0.047,0.993-0.047,1.498,0l1.215-2.102l6.21,3.577l-1.219,2.106c0.285,0.406,0.534,0.836,0.744,1.288h2.438
			v7.156h-2.438c-0.21,0.451-0.459,0.882-0.744,1.288l1.219,2.107L77.87,47.861z M77.827,43.289l0.867,1.498l2.304-1.327
			l-0.867-1.499l0.52-0.606c0.497-0.58,0.88-1.241,1.137-1.967l0.266-0.75h1.736v-2.651h-1.736l-0.266-0.75
			c-0.257-0.726-0.64-1.388-1.137-1.967l-0.52-0.606l0.867-1.499l-2.304-1.327l-0.867,1.498l-0.781-0.144
			c-0.801-0.147-1.48-0.147-2.282,0l-0.781,0.144l-0.867-1.498l-2.305,1.327l0.867,1.499l-0.52,0.606
			c-0.497,0.579-0.88,1.241-1.137,1.967l-0.266,0.75h-1.736v2.651h1.736l0.266,0.75c0.257,0.725,0.64,1.387,1.137,1.967l0.52,0.606
			l-0.867,1.499l2.305,1.327l0.867-1.498l0.781,0.144c0.799,0.146,1.484,0.146,2.282,0L77.827,43.289z"></path></g><g><path fill="#fff" d="M39.863,47.734v20.274V47.734z" data-darkreader-inline-fill="" style="--darkreader-inline-fill: var(--darkreader-text-ffffff, #e8e6e3);"></path><rect width="2.253" height="22.527" x="38.736" y="46.607"></rect></g><g><path fill="#fff" d="M60.137,47.734v20.274V47.734z" data-darkreader-inline-fill="" style="--darkreader-inline-fill: var(--darkreader-text-ffffff, #e8e6e3);"></path><rect width="2.253" height="22.527" x="59.01" y="46.607"></rect></g></g></svg></svg></g></g><defs><clipPath id="SvgjsClipPath1110"><rect width="1000" height="1000" x="0" y="0" rx="350" ry="350"></rect></clipPath></defs></svg></g><g id="dark-icon"><svg xmlns="http://www.w3.org/2000/svg" version="1.1" xmlns:xlink="http://www.w3.org/1999/xlink" xmlns:svgjs="http://svgjs.dev/svgjs" width="1000" height="1000"><g clip-path="url(#SvgjsClipPath1111)"><rect width="1000" height="1000" fill="#ffffff"></rect><g transform="matrix(10,0,0,10,0,0)"><svg xmlns="http://www.w3.org/2000/svg" version="1.1" xmlns:xlink="http://www.w3.org/1999/xlink" xmlns:svgjs="http://svgjs.dev/svgjs" width="100" height="100"><svg xmlns="http://www.w3.org/2000/svg" enable-background="new 0 0 100 100" viewBox="0 0 100 100"><g><path fill="#2ed9f5" d="M34.638 49.128c-3.254 0-7.781 2.336-8.264 5.494l-1.153 7.755v18.021h14.642V47.504L34.638 49.128zM74.779 62.376l-1.154-7.755c-.483-3.158-5.009-5.494-8.264-5.494l-5.225-1.624v32.893h14.643V62.376z" data-darkreader-inline-fill="" style="--darkreader-inline-fill: var(--darkreader-background-2ed9f5, #0897ae);"></path><g><polygon fill="#ff3e3e" points="50 44.355 39.863 47.504 39.863 80.398 60.137 80.398 60.137 47.504" data-darkreader-inline-fill="" style="--darkreader-inline-fill: var(--darkreader-background-ff3e3e, #a70000);"></polygon></g><g><g><g><g><polygon fill="#d1f7ff" points="15.083 40.976 20.715 40.976 27.473 45.481 27.473 40.976 35.358 40.976 35.358 26.333 15.083 26.333" data-darkreader-inline-fill="" style="--darkreader-inline-fill: var(--darkreader-text-d1f7ff, #acf1ff);"></polygon><path d="M28.599,47.586l-8.225-5.484h-6.417V25.207h22.527v16.895h-7.885V47.586z M16.21,39.849h4.846l5.291,3.527v-3.527
						h7.884V27.46H16.21V39.849z"></path></g></g></g><g><rect width="13.516" height="2.253" x="18.462" y="29.712"></rect></g><g><rect width="7.885" height="2.252" x="18.462" y="34.218"></rect></g></g><g><path d="M73.831,63.656l-1.32-8.869c-0.372-2.44-4.243-4.534-7.149-4.534l-0.334-0.051L50,45.534l-15.362,4.719
			c-2.907,0-6.777,2.094-7.149,4.538l-1.319,8.864l-2.228-0.332l1.319-8.868c0.601-3.934,5.698-6.373,9.2-6.453L50,43.175
			l15.54,4.828c3.501,0.08,8.599,2.519,9.199,6.449l1.32,8.873L73.831,63.656z"></path></g><g><g><path fill="#fff" d="M64.642,75.783c7.884,0,19.148,5.7,19.148,5.7l1.126,3.42L50,82.623v-2.28
				C50,80.343,56.758,75.783,64.642,75.783z" data-darkreader-inline-fill="" style="--darkreader-inline-fill: var(--darkreader-background-ffffff, #181a1b);"></path><path d="M86.508,86.135l-37.635-2.457v-3.935l0.496-0.335c0.288-0.194,7.138-4.753,15.273-4.753
				c8.06,0,19.187,5.584,19.656,5.822l0.415,0.21L86.508,86.135z M51.126,81.567l32.199,2.103l-0.457-1.385
				c-2.078-1.003-11.534-5.377-18.226-5.377c-6.25,0-11.855,3.06-13.516,4.058V81.567z"></path></g><g><path d="M49.952,81.935l-1.545-1.639l0.82-0.772c8.602-8.108,20.426-13.126,32.44-13.767l1.125-0.06l0.12,2.249l-1.125,0.06
				c-11.49,0.613-22.795,5.409-31.015,13.156L49.952,81.935z"></path></g><g><path d="M49.903,82.503l-1.494-1.686l0.843-0.747c0.571-0.506,14.209-12.318,33.732-6.507l1.08,0.321l-0.642,2.159l-1.08-0.321
				c-18.336-5.457-31.465,5.919-31.596,6.034L49.903,82.503z"></path></g><g><path fill="#fff" d="M35.358,75.783c-7.884,0-19.148,5.7-19.148,5.7l-1.126,3.42L50,82.623v-2.28
				C50,80.343,43.242,75.783,35.358,75.783z" data-darkreader-inline-fill="" style="--darkreader-inline-fill: var(--darkreader-background-ffffff, #181a1b);"></path><path d="M13.492,86.135l1.794-5.447l0.415-0.21c0.47-0.238,11.596-5.822,19.657-5.822c8.135,0,14.985,4.558,15.272,4.753
				l0.496,0.335v3.935L13.492,86.135z M17.131,82.286l-0.456,1.385l32.198-2.103v-0.601c-1.661-0.998-7.266-4.058-13.516-4.058
				C28.665,76.909,19.209,81.283,17.131,82.286z"></path></g><g><path d="M50.047,81.935l-0.82-0.773c-8.22-7.747-19.525-12.543-31.014-13.156l-1.125-0.06l0.12-2.249l1.125,0.06
				c12.014,0.641,23.838,5.659,32.44,13.767l0.82,0.772L50.047,81.935z"></path></g><g><path d="M50.098,82.501l-0.844-0.744c-0.131-0.116-13.302-11.481-31.597-6.035l-1.08,0.321l-0.642-2.159l1.08-0.321
				c19.522-5.812,33.161,6.001,33.732,6.507l0.842,0.746L50.098,82.501z"></path></g><g><path fill="#7f7f7f" d="M46.621,83.214c0-0.933,1.512-2.816,3.379-2.816c1.866,0,3.379,1.883,3.379,2.816
				c0,0.933-1.513,1.69-3.379,1.69C48.134,84.903,46.621,84.146,46.621,83.214z" data-darkreader-inline-fill="" style="--darkreader-inline-fill: var(--darkreader-text-7f7f7f, #988f81);"></path><path d="M50,86.029c-2.611,0-4.505-1.184-4.505-2.815c0-1.557,2.018-3.942,4.505-3.942c2.487,0,4.506,2.385,4.506,3.942
				C54.505,84.845,52.611,86.029,50,86.029z M47.76,83.163c0.189,0.212,0.976,0.614,2.24,0.614c1.356,0,2.164-0.464,2.271-0.657
				c-0.066-0.302-1.07-1.596-2.271-1.596C48.857,81.524,47.893,82.694,47.76,83.163z"></path></g></g><g><g><g><g><g><g><g><g><g><g><g><g><g><g><path fill="#fff" d="M66.895,65.756v-7.9V65.756z" data-darkreader-inline-fill="" style="--darkreader-inline-fill: var(--darkreader-text-ffffff, #e8e6e3);"></path><rect width="2.252" height="10.152" x="65.769" y="56.729"></rect></g><g><path fill="#fff" d="M33.105,65.756v-7.9V65.756z" data-darkreader-inline-fill="" style="--darkreader-inline-fill: var(--darkreader-text-ffffff, #e8e6e3);"></path><rect width="2.253" height="10.152" x="31.978" y="56.729"></rect></g><g><g><path fill="#fcc18a" d="M52.813,48.136c-1.702,1.087-3.925,1.087-5.626,0
																	c-0.833-0.532-1.528-1.291-1.528-2.34V43.23h8.682v2.566C54.341,46.846,53.646,47.604,52.813,48.136z" data-darkreader-inline-fill="" style="--darkreader-inline-fill: var(--darkreader-text-fcc18a, #fcb97b);"></path><path d="M50,50.081c-1.19,0-2.381-0.332-3.419-0.995c-1.693-1.081-2.048-2.386-2.048-3.29v-3.692h10.935v3.692
																	c0,0.904-0.355,2.208-2.048,3.29h0C52.381,49.749,51.19,50.081,50,50.081z M52.813,48.136h0.011H52.813z
																	 M46.785,44.357v1.439c0,0.185,0,0.747,1.008,1.391c1.34,0.856,3.073,0.856,4.414,0
																	c1.008-0.644,1.008-1.206,1.008-1.391v-1.439H46.785z"></path></g></g></g></g></g><g><ellipse cx="50" cy="34.881" fill="#fcc18a" rx="8.369" ry="9.674" data-darkreader-inline-fill="" style="--darkreader-inline-fill: var(--darkreader-text-fcc18a, #fcb97b);"></ellipse><path d="M50,45.682c-5.235,0-9.496-4.846-9.496-10.8c0-5.955,4.26-10.8,9.496-10.8c5.236,0,9.496,4.845,9.496,10.8
													C59.495,40.836,55.236,45.682,50,45.682z M50,26.333c-3.993,0-7.243,3.835-7.243,8.548c0,4.713,3.249,8.548,7.243,8.548
													c3.994,0,7.243-3.835,7.243-8.548C57.243,30.168,53.994,26.333,50,26.333z"></path></g></g></g></g></g></g></g></g></g></g></g><g><g><path d="M65.769,30.839h-2.253v-1.126c0-3.088-1.158-5.425-3.441-6.947l-0.937-0.625l1.25-1.874l0.937,0.625
				c2.907,1.938,4.444,4.988,4.444,8.821V30.839z"></path></g><g><g><polygon fill="#877de0" points="50 27.846 66.073 21.195 50 15.07 33.927 21.195" data-darkreader-inline-fill="" style="--darkreader-inline-fill: var(--darkreader-background-877de0, #261c77);"></polygon><path d="M50,29.065l-19.123-7.913L50,13.865l19.123,7.286L50,29.065z M36.977,21.237L50,26.627l13.023-5.389L50,16.275
					L36.977,21.237z"></path></g><g><g><path fill="#877de0" d="M41.647,30.839c0,0,3.847-1.126,8.352-1.126c4.506,0,8.352,1.126,8.352,1.126l-1.126-7.884
						c0,0-2.721-1.126-7.227-1.126c-4.505,0-7.226,1.126-7.226,1.126L41.647,30.839z" data-darkreader-inline-fill="" style="--darkreader-inline-fill: var(--darkreader-text-877de0, #857bdf);"></path><path d="M59.714,32.409l-1.678-0.489c-0.037-0.011-3.758-1.081-8.037-1.081c-4.278,0-7.999,1.07-8.037,1.081l-1.678,0.489
						l1.464-10.25l0.594-0.245c0.119-0.049,2.981-1.212,7.656-1.212c4.676,0,7.537,1.163,7.657,1.212l0.593,0.245L59.714,32.409z
						 M50,28.586c2.842,0,5.411,0.427,7.003,0.766l-0.794-5.556c-0.988-0.302-3.177-0.842-6.209-0.842
						c-3.03,0-5.219,0.539-6.208,0.842l-0.794,5.556C44.589,29.013,47.158,28.586,50,28.586z"></path></g></g></g></g><g><path fill="#fad151" d="M75.906,44.668c-0.46,0-0.909-0.047-1.345-0.128l-1.032,1.784l-4.256-2.452l1.032-1.784
			c-0.582-0.679-1.038-1.464-1.343-2.323h-2.066v-4.903h2.066c0.305-0.859,0.761-1.645,1.343-2.323l-1.032-1.784l4.256-2.451
			l1.032,1.784c0.436-0.08,0.884-0.128,1.345-0.128c0.46,0,0.908,0.048,1.345,0.128l1.032-1.784l4.257,2.451l-1.033,1.784
			c0.582,0.679,1.038,1.465,1.343,2.323h2.067v4.903H82.85c-0.305,0.859-0.761,1.645-1.343,2.323l1.033,1.784l-4.257,2.452
			l-1.032-1.784C76.814,44.621,76.366,44.668,75.906,44.668z" data-darkreader-inline-fill="" style="--darkreader-inline-fill: var(--darkreader-text-fad151, #fad254);"></path><path d="M77.87,47.861l-1.216-2.102c-0.507,0.047-0.99,0.047-1.497,0l-1.217,2.102l-6.21-3.575l1.219-2.107
			c-0.285-0.406-0.534-0.837-0.744-1.288h-2.438v-7.156h2.438c0.21-0.452,0.459-0.882,0.744-1.288l-1.219-2.106l6.21-3.577
			l1.216,2.102c0.505-0.047,0.993-0.047,1.498,0l1.215-2.102l6.21,3.577l-1.219,2.106c0.285,0.406,0.534,0.836,0.744,1.288h2.438
			v7.156h-2.438c-0.21,0.451-0.459,0.882-0.744,1.288l1.219,2.107L77.87,47.861z M77.827,43.289l0.867,1.498l2.304-1.327
			l-0.867-1.499l0.52-0.606c0.497-0.58,0.88-1.241,1.137-1.967l0.266-0.75h1.736v-2.651h-1.736l-0.266-0.75
			c-0.257-0.726-0.64-1.388-1.137-1.967l-0.52-0.606l0.867-1.499l-2.304-1.327l-0.867,1.498l-0.781-0.144
			c-0.801-0.147-1.48-0.147-2.282,0l-0.781,0.144l-0.867-1.498l-2.305,1.327l0.867,1.499l-0.52,0.606
			c-0.497,0.579-0.88,1.241-1.137,1.967l-0.266,0.75h-1.736v2.651h1.736l0.266,0.75c0.257,0.725,0.64,1.387,1.137,1.967l0.52,0.606
			l-0.867,1.499l2.305,1.327l0.867-1.498l0.781,0.144c0.799,0.146,1.484,0.146,2.282,0L77.827,43.289z"></path></g><g><path fill="#fff" d="M39.863,47.734v20.274V47.734z" data-darkreader-inline-fill="" style="--darkreader-inline-fill: var(--darkreader-text-ffffff, #e8e6e3);"></path><rect width="2.253" height="22.527" x="38.736" y="46.607"></rect></g><g><path fill="#fff" d="M60.137,47.734v20.274V47.734z" data-darkreader-inline-fill="" style="--darkreader-inline-fill: var(--darkreader-text-ffffff, #e8e6e3);"></path><rect width="2.253" height="22.527" x="59.01" y="46.607"></rect></g></g></svg></svg></g></g><defs><clipPath id="SvgjsClipPath1111"><rect width="1000" height="1000" x="0" y="0" rx="350" ry="350"></rect></clipPath></defs></svg></g></svg>